<mxfile host="Electron" modified="2024-04-14T18:58:08.988Z" agent="Mozilla/5.0 (Windows NT 10.0; Win64; x64) AppleWebKit/537.36 (KHTML, like Gecko) draw.io/24.1.0 Chrome/120.0.6099.109 Electron/28.1.0 Safari/537.36" etag="0JSj51MJjxaNCTcs2BUG" version="24.1.0" type="device">
  <diagram id="lVJ_0kzCA-uYx7T6SMDU" name="PÃ¡gina-1">
    <mxGraphModel dx="6698" dy="3102" grid="0" gridSize="10" guides="1" tooltips="1" connect="1" arrows="1" fold="1" page="1" pageScale="1" pageWidth="1169" pageHeight="827" background="#ffffff" math="0" shadow="1">
      <root>
        <mxCell id="0" />
        <mxCell id="1" parent="0" />
        <mxCell id="ZsXU7rFgu9ViAAEN2aUe-576" value="" style="rounded=0;whiteSpace=wrap;html=1;fillColor=#E6E6E6;strokeColor=#4C0099;textShadow=0;labelBorderColor=none;labelBackgroundColor=none;shadow=0;glass=0;gradientColor=none;fillStyle=auto;" vertex="1" parent="1">
          <mxGeometry x="-1381" y="-1477" width="470" height="307.27" as="geometry" />
        </mxCell>
        <mxCell id="ZsXU7rFgu9ViAAEN2aUe-196" value="" style="ellipse;shape=cloud;whiteSpace=wrap;html=1;align=center;movable=1;resizable=1;rotatable=1;deletable=1;editable=1;locked=0;connectable=1;fillColor=#dae8fc;strokeColor=#4C0099;gradientColor=#7ea6e0;rounded=0;" vertex="1" parent="1">
          <mxGeometry x="112.88" y="-1070" width="1494.49" height="929" as="geometry" />
        </mxCell>
        <mxCell id="ZsXU7rFgu9ViAAEN2aUe-533" value="" style="verticalLabelPosition=bottom;verticalAlign=top;html=1;shape=mxgraph.basic.rect;fillColor2=none;strokeWidth=1;size=20;indent=5;rounded=0;fillColor=#E6E6E6;shadow=1;" vertex="1" parent="1">
          <mxGeometry x="486" y="-606" width="170" height="180" as="geometry" />
        </mxCell>
        <mxCell id="ZsXU7rFgu9ViAAEN2aUe-253" value="" style="rounded=0;whiteSpace=wrap;html=1;fillColor=#E6E6E6;strokeColor=#4C0099;textShadow=0;labelBorderColor=none;labelBackgroundColor=none;shadow=0;glass=0;gradientColor=none;fillStyle=auto;" vertex="1" parent="1">
          <mxGeometry x="-2410" y="379" width="2390" height="1420" as="geometry" />
        </mxCell>
        <mxCell id="ZsXU7rFgu9ViAAEN2aUe-136" value="" style="rounded=0;whiteSpace=wrap;html=1;fillColor=#E6E6E6;strokeColor=#4C0099;textShadow=0;labelBorderColor=none;labelBackgroundColor=none;shadow=0;glass=0;gradientColor=none;fillStyle=auto;" vertex="1" parent="1">
          <mxGeometry x="-2401.88" y="-1105.87" width="2373.76" height="1220.5" as="geometry" />
        </mxCell>
        <mxCell id="ZsXU7rFgu9ViAAEN2aUe-174" value="" style="pointerEvents=1;shadow=0;dashed=0;html=1;strokeColor=none;fillColor=#000000;labelPosition=center;verticalLabelPosition=bottom;verticalAlign=top;align=center;outlineConnect=0;shape=mxgraph.veeam2.linux;fillStyle=auto;rounded=0;gradientColor=none;" vertex="1" parent="1">
          <mxGeometry x="816.0699999999999" y="-629" width="80" height="80" as="geometry" />
        </mxCell>
        <mxCell id="ZsXU7rFgu9ViAAEN2aUe-159" value="" style="verticalLabelPosition=bottom;verticalAlign=top;html=1;shape=mxgraph.basic.rect;fillColor2=none;strokeWidth=1;size=20;indent=5;shadow=1;rounded=0;fillColor=#E6E6E6;fontColor=#333333;strokeColor=#000000;" vertex="1" parent="1">
          <mxGeometry x="-1161.64" y="-830" width="171.64" height="230" as="geometry" />
        </mxCell>
        <mxCell id="ZsXU7rFgu9ViAAEN2aUe-146" value="" style="verticalLabelPosition=bottom;verticalAlign=top;html=1;shape=mxgraph.basic.rect;fillColor2=none;strokeWidth=1;size=20;indent=5;shadow=1;rounded=0;fillColor=#E6E6E6;fontColor=#333333;strokeColor=#000000;" vertex="1" parent="1">
          <mxGeometry x="-968.78" y="-830" width="174" height="230" as="geometry" />
        </mxCell>
        <mxCell id="ZsXU7rFgu9ViAAEN2aUe-1" value="" style="shape=mxgraph.cisco.security.firewall;sketch=0;html=1;pointerEvents=1;dashed=0;fillColor=#FF8000;strokeColor=#FF3333;strokeWidth=2;verticalLabelPosition=bottom;verticalAlign=top;align=center;outlineConnect=0;movable=1;resizable=1;rotatable=1;deletable=1;editable=1;locked=0;connectable=1;rounded=0;" vertex="1" parent="1">
          <mxGeometry x="-1442.5" y="-980" width="29" height="67" as="geometry" />
        </mxCell>
        <mxCell id="ZsXU7rFgu9ViAAEN2aUe-2" value="" style="shape=mxgraph.cisco.security.firewall;sketch=0;html=1;pointerEvents=1;dashed=0;fillColor=#FF8000;strokeColor=#FF3333;strokeWidth=2;verticalLabelPosition=bottom;verticalAlign=top;align=center;outlineConnect=0;movable=1;resizable=1;rotatable=1;deletable=1;editable=1;locked=0;connectable=1;rounded=0;" vertex="1" parent="1">
          <mxGeometry x="-1653" y="-980" width="29" height="67" as="geometry" />
        </mxCell>
        <mxCell id="ZsXU7rFgu9ViAAEN2aUe-5" value="" style="shape=mxgraph.cisco.switches.simultilayer_switch;sketch=0;html=1;pointerEvents=1;dashed=0;fillColor=#5111AC;strokeColor=#FFFFFF;strokeWidth=2;verticalLabelPosition=bottom;verticalAlign=top;align=center;outlineConnect=0;movable=1;resizable=1;rotatable=1;deletable=1;editable=1;locked=0;connectable=1;fontColor=#ffffff;rounded=0;" vertex="1" parent="1">
          <mxGeometry x="-1444" y="-757" width="58" height="58" as="geometry" />
        </mxCell>
        <mxCell id="ZsXU7rFgu9ViAAEN2aUe-6" value="" style="shape=mxgraph.cisco.switches.simultilayer_switch;sketch=0;html=1;pointerEvents=1;dashed=0;fillColor=#5111AC;strokeColor=#ffffff;strokeWidth=2;verticalLabelPosition=bottom;verticalAlign=top;align=center;outlineConnect=0;movable=1;resizable=1;rotatable=1;deletable=1;editable=1;locked=0;connectable=1;rounded=0;" vertex="1" parent="1">
          <mxGeometry x="-1674" y="-757" width="58" height="58" as="geometry" />
        </mxCell>
        <mxCell id="ZsXU7rFgu9ViAAEN2aUe-7" value="" style="shape=mxgraph.cisco.switches.simultilayer_switch;sketch=0;html=1;pointerEvents=1;dashed=0;fillColor=#4C0099;strokeColor=#FFFFFF;strokeWidth=2;verticalLabelPosition=bottom;verticalAlign=top;align=center;outlineConnect=0;movable=1;resizable=1;rotatable=1;deletable=1;editable=1;locked=0;connectable=1;fontColor=#ffffff;rounded=0;" vertex="1" parent="1">
          <mxGeometry x="-1396" y="-583" width="58" height="58" as="geometry" />
        </mxCell>
        <mxCell id="ZsXU7rFgu9ViAAEN2aUe-8" value="" style="shape=mxgraph.cisco.switches.simultilayer_switch;sketch=0;html=1;pointerEvents=1;dashed=0;fillColor=#4C0099;strokeColor=#FFFFFF;strokeWidth=2;verticalLabelPosition=bottom;verticalAlign=top;align=center;outlineConnect=0;movable=1;resizable=1;rotatable=1;deletable=1;editable=1;locked=0;connectable=1;fontColor=#ffffff;rounded=0;" vertex="1" parent="1">
          <mxGeometry x="-1743" y="-581" width="58" height="58" as="geometry" />
        </mxCell>
        <mxCell id="ZsXU7rFgu9ViAAEN2aUe-9" value="" style="shape=mxgraph.cisco.switches.workgroup_switch;sketch=0;html=1;pointerEvents=1;dashed=0;fillColor=#4C0099;strokeColor=#FFFFFF;strokeWidth=2;verticalLabelPosition=bottom;verticalAlign=top;align=center;outlineConnect=0;fontColor=#ffffff;rounded=0;" vertex="1" parent="1">
          <mxGeometry x="-910.3599999999998" y="-548" width="80.8" height="40" as="geometry" />
        </mxCell>
        <mxCell id="ZsXU7rFgu9ViAAEN2aUe-13" value="" style="endArrow=none;html=1;rounded=0;strokeWidth=3;curved=1;entryX=0.01;entryY=0.5;entryDx=0;entryDy=0;entryPerimeter=0;fillColor=#1ba1e2;strokeColor=#006EAF;movable=1;resizable=1;rotatable=1;deletable=1;editable=1;locked=0;connectable=1;" edge="1" parent="1" source="ZsXU7rFgu9ViAAEN2aUe-6" target="ZsXU7rFgu9ViAAEN2aUe-5">
          <mxGeometry width="50" height="50" relative="1" as="geometry">
            <mxPoint x="-1592" y="-729.5" as="sourcePoint" />
            <mxPoint x="-1440" y="-729" as="targetPoint" />
          </mxGeometry>
        </mxCell>
        <mxCell id="ZsXU7rFgu9ViAAEN2aUe-14" value="" style="endArrow=none;html=1;rounded=0;strokeWidth=3;curved=1;movable=1;resizable=1;rotatable=1;deletable=1;editable=1;locked=0;connectable=1;fillColor=#1ba1e2;strokeColor=#006EAF;" edge="1" parent="1" source="ZsXU7rFgu9ViAAEN2aUe-2" target="ZsXU7rFgu9ViAAEN2aUe-1">
          <mxGeometry width="50" height="50" relative="1" as="geometry">
            <mxPoint x="-1600.5" y="-937" as="sourcePoint" />
            <mxPoint x="-1454" y="-940" as="targetPoint" />
          </mxGeometry>
        </mxCell>
        <mxCell id="ZsXU7rFgu9ViAAEN2aUe-17" value="" style="endArrow=none;html=1;rounded=0;strokeWidth=3;fillColor=#1ba1e2;strokeColor=#006EAF;movable=1;resizable=1;rotatable=1;deletable=1;editable=1;locked=0;connectable=1;edgeStyle=orthogonalEdgeStyle;" edge="1" parent="1" source="ZsXU7rFgu9ViAAEN2aUe-6" target="ZsXU7rFgu9ViAAEN2aUe-1">
          <mxGeometry width="50" height="50" relative="1" as="geometry">
            <mxPoint x="-1603" y="-753.2690476190476" as="sourcePoint" />
            <mxPoint x="-1436.5" y="-886.8654761904761" as="targetPoint" />
            <Array as="points">
              <mxPoint x="-1630" y="-820" />
              <mxPoint x="-1530" y="-820" />
              <mxPoint x="-1530" y="-930" />
            </Array>
          </mxGeometry>
        </mxCell>
        <mxCell id="ZsXU7rFgu9ViAAEN2aUe-18" value="FW01" style="text;strokeColor=none;fillColor=none;html=1;fontSize=12;fontStyle=1;verticalAlign=middle;align=center;movable=1;resizable=1;rotatable=1;deletable=1;editable=1;locked=0;connectable=1;rounded=0;" vertex="1" parent="1">
          <mxGeometry x="-1655" y="-908" width="25" height="10" as="geometry" />
        </mxCell>
        <mxCell id="ZsXU7rFgu9ViAAEN2aUe-24" value="FW02" style="text;strokeColor=none;fillColor=none;html=1;fontSize=12;fontStyle=1;verticalAlign=middle;align=center;movable=1;resizable=1;rotatable=1;deletable=1;editable=1;locked=0;connectable=1;rounded=0;" vertex="1" parent="1">
          <mxGeometry x="-1443.5" y="-908" width="25" height="10" as="geometry" />
        </mxCell>
        <mxCell id="ZsXU7rFgu9ViAAEN2aUe-27" value="SW-CORE01" style="text;strokeColor=none;fillColor=none;html=1;fontSize=12;fontStyle=1;verticalAlign=middle;align=center;movable=1;resizable=1;rotatable=1;deletable=1;editable=1;locked=0;connectable=1;rounded=0;" vertex="1" parent="1">
          <mxGeometry x="-1670" y="-696" width="25" height="10" as="geometry" />
        </mxCell>
        <mxCell id="ZsXU7rFgu9ViAAEN2aUe-28" value="SW-CORE02" style="text;strokeColor=none;fillColor=none;html=1;fontSize=12;fontStyle=1;verticalAlign=middle;align=center;movable=1;resizable=1;rotatable=1;deletable=1;editable=1;locked=0;connectable=1;rounded=0;" vertex="1" parent="1">
          <mxGeometry x="-1428.5" y="-696" width="25" height="10" as="geometry" />
        </mxCell>
        <mxCell id="ZsXU7rFgu9ViAAEN2aUe-30" value="" style="endArrow=none;html=1;rounded=0;strokeWidth=3;fillColor=#1ba1e2;strokeColor=#006EAF;movable=1;resizable=1;rotatable=1;deletable=1;editable=1;locked=0;connectable=1;edgeStyle=orthogonalEdgeStyle;" edge="1" parent="1" source="ZsXU7rFgu9ViAAEN2aUe-8" target="ZsXU7rFgu9ViAAEN2aUe-5">
          <mxGeometry width="50" height="50" relative="1" as="geometry">
            <mxPoint x="-1680" y="-560" as="sourcePoint" />
            <mxPoint x="-1444" y="-704.6518518518519" as="targetPoint" />
            <Array as="points">
              <mxPoint x="-1600" y="-560" />
              <mxPoint x="-1600" y="-630" />
              <mxPoint x="-1490" y="-630" />
              <mxPoint x="-1490" y="-710" />
            </Array>
          </mxGeometry>
        </mxCell>
        <mxCell id="ZsXU7rFgu9ViAAEN2aUe-32" value="" style="endArrow=none;html=1;rounded=0;strokeWidth=3;fillColor=#1ba1e2;strokeColor=#006EAF;movable=1;resizable=1;rotatable=1;deletable=1;editable=1;locked=0;connectable=1;edgeStyle=orthogonalEdgeStyle;" edge="1" parent="1" source="ZsXU7rFgu9ViAAEN2aUe-6" target="ZsXU7rFgu9ViAAEN2aUe-7">
          <mxGeometry width="50" height="50" relative="1" as="geometry">
            <mxPoint x="-1682" y="-552" as="sourcePoint" />
            <mxPoint x="-1434" y="-693" as="targetPoint" />
            <Array as="points">
              <mxPoint x="-1560" y="-710" />
              <mxPoint x="-1560" y="-560" />
            </Array>
          </mxGeometry>
        </mxCell>
        <mxCell id="ZsXU7rFgu9ViAAEN2aUe-33" value="SW-DIST01" style="text;strokeColor=none;fillColor=none;html=1;fontSize=12;fontStyle=1;verticalAlign=middle;align=center;movable=1;resizable=1;rotatable=1;deletable=1;editable=1;locked=0;connectable=1;rounded=0;" vertex="1" parent="1">
          <mxGeometry x="-1731" y="-518" width="25" height="10" as="geometry" />
        </mxCell>
        <mxCell id="ZsXU7rFgu9ViAAEN2aUe-35" value="SW-DIST02" style="text;strokeColor=none;fillColor=none;html=1;fontSize=12;fontStyle=1;verticalAlign=middle;align=center;movable=1;resizable=1;rotatable=1;deletable=1;editable=1;locked=0;connectable=1;rounded=0;" vertex="1" parent="1">
          <mxGeometry x="-1381.5" y="-521" width="25" height="10" as="geometry" />
        </mxCell>
        <mxCell id="ZsXU7rFgu9ViAAEN2aUe-36" value="" style="shape=mxgraph.cisco.switches.workgroup_switch;sketch=0;html=1;pointerEvents=1;dashed=0;fillColor=#4C0099;strokeColor=#ffffff;strokeWidth=2;verticalLabelPosition=bottom;verticalAlign=top;align=center;outlineConnect=0;rounded=0;" vertex="1" parent="1">
          <mxGeometry x="-1276.6700000000003" y="1650" width="80.8" height="40" as="geometry" />
        </mxCell>
        <mxCell id="ZsXU7rFgu9ViAAEN2aUe-38" value="" style="shape=mxgraph.cisco.routers.router;sketch=0;html=1;pointerEvents=1;dashed=0;fillColor=#5111AC;strokeColor=#ffffff;strokeWidth=2;verticalLabelPosition=bottom;verticalAlign=top;align=center;outlineConnect=0;movable=1;resizable=1;rotatable=1;deletable=1;editable=1;locked=0;connectable=1;rounded=0;" vertex="1" parent="1">
          <mxGeometry x="-1951.5" y="-754.5" width="78" height="53" as="geometry" />
        </mxCell>
        <mxCell id="ZsXU7rFgu9ViAAEN2aUe-40" value="RB" style="text;strokeColor=none;fillColor=none;html=1;fontSize=12;fontStyle=1;verticalAlign=middle;align=center;movable=1;resizable=1;rotatable=1;deletable=1;editable=1;locked=0;connectable=1;rounded=0;" vertex="1" parent="1">
          <mxGeometry x="-1928" y="-698" width="25" height="10" as="geometry" />
        </mxCell>
        <mxCell id="ZsXU7rFgu9ViAAEN2aUe-41" value="LINK2" style="ellipse;shape=cloud;whiteSpace=wrap;html=1;align=center;movable=1;resizable=1;rotatable=1;deletable=1;editable=1;locked=0;connectable=1;fillColor=#dae8fc;strokeColor=#4C0099;gradientColor=#7ea6e0;rounded=0;" vertex="1" parent="1">
          <mxGeometry x="-2220.5" y="-776" width="145.72" height="90" as="geometry" />
        </mxCell>
        <mxCell id="ZsXU7rFgu9ViAAEN2aUe-43" value="" style="endArrow=none;html=1;rounded=0;strokeWidth=2;dashed=1;fillColor=#dae8fc;gradientColor=#7ea6e0;strokeColor=#6c8ebf;movable=1;resizable=1;rotatable=1;deletable=1;editable=1;locked=0;connectable=1;exitX=1;exitY=0.5;exitDx=0;exitDy=0;exitPerimeter=0;" edge="1" parent="1" source="ZsXU7rFgu9ViAAEN2aUe-38" target="ZsXU7rFgu9ViAAEN2aUe-6">
          <mxGeometry width="50" height="50" relative="1" as="geometry">
            <mxPoint x="-1874" y="-720" as="sourcePoint" />
            <mxPoint x="-1649" y="-583" as="targetPoint" />
          </mxGeometry>
        </mxCell>
        <mxCell id="ZsXU7rFgu9ViAAEN2aUe-44" value="" style="endArrow=none;html=1;rounded=0;strokeWidth=2;dashed=1;entryX=0;entryY=0.5;entryDx=0;entryDy=0;entryPerimeter=0;fillColor=#dae8fc;gradientColor=#7ea6e0;strokeColor=#6c8ebf;movable=1;resizable=1;rotatable=1;deletable=1;editable=1;locked=0;connectable=1;" edge="1" parent="1" source="ZsXU7rFgu9ViAAEN2aUe-41" target="ZsXU7rFgu9ViAAEN2aUe-38">
          <mxGeometry width="50" height="50" relative="1" as="geometry">
            <mxPoint x="-2070" y="-730" as="sourcePoint" />
            <mxPoint x="-1960" y="-779" as="targetPoint" />
          </mxGeometry>
        </mxCell>
        <mxCell id="ZsXU7rFgu9ViAAEN2aUe-48" value="" style="shape=mxgraph.cisco.routers.router;sketch=0;html=1;pointerEvents=1;dashed=0;fillColor=#5111AC;strokeColor=#FFFFFF;strokeWidth=2;verticalLabelPosition=bottom;verticalAlign=top;align=center;outlineConnect=0;movable=1;resizable=1;rotatable=1;deletable=1;editable=1;locked=0;connectable=1;fontColor=#ffffff;rounded=0;" vertex="1" parent="1">
          <mxGeometry x="-1175.24" y="-930.5" width="78" height="53" as="geometry" />
        </mxCell>
        <mxCell id="ZsXU7rFgu9ViAAEN2aUe-50" value="LINK1" style="ellipse;shape=cloud;whiteSpace=wrap;html=1;align=center;movable=1;resizable=1;rotatable=1;deletable=1;editable=1;locked=0;connectable=1;rounded=0;fillColor=#dae8fc;gradientColor=#7ea6e0;strokeColor=#4C0099;" vertex="1" parent="1">
          <mxGeometry x="-994.36" y="-954" width="145.72" height="90" as="geometry" />
        </mxCell>
        <mxCell id="ZsXU7rFgu9ViAAEN2aUe-53" value="RB" style="text;strokeColor=none;fillColor=none;html=1;fontSize=12;fontStyle=1;verticalAlign=middle;align=center;movable=1;resizable=1;rotatable=1;deletable=1;editable=1;locked=0;connectable=1;rounded=0;" vertex="1" parent="1">
          <mxGeometry x="-1148.74" y="-872" width="25" height="10" as="geometry" />
        </mxCell>
        <mxCell id="ZsXU7rFgu9ViAAEN2aUe-54" value="" style="endArrow=none;html=1;rounded=0;strokeWidth=2;dashed=1;fillColor=#dae8fc;gradientColor=#7ea6e0;strokeColor=#6c8ebf;movable=1;resizable=1;rotatable=1;deletable=1;editable=1;locked=0;connectable=1;edgeStyle=orthogonalEdgeStyle;" edge="1" parent="1" source="ZsXU7rFgu9ViAAEN2aUe-6" target="ZsXU7rFgu9ViAAEN2aUe-48">
          <mxGeometry width="50" height="50" relative="1" as="geometry">
            <mxPoint x="-1346" y="-656" as="sourcePoint" />
            <mxPoint x="-1121" y="-519" as="targetPoint" />
            <Array as="points">
              <mxPoint x="-1620" y="-810" />
              <mxPoint x="-1210" y="-810" />
              <mxPoint x="-1210" y="-900" />
            </Array>
          </mxGeometry>
        </mxCell>
        <mxCell id="ZsXU7rFgu9ViAAEN2aUe-57" value="" style="endArrow=none;html=1;rounded=0;strokeWidth=2;dashed=1;fillColor=#dae8fc;gradientColor=#7ea6e0;strokeColor=#6c8ebf;movable=1;resizable=1;rotatable=1;deletable=1;editable=1;locked=0;connectable=1;edgeStyle=orthogonalEdgeStyle;entryX=0.099;entryY=0.544;entryDx=0;entryDy=0;entryPerimeter=0;" edge="1" parent="1" target="ZsXU7rFgu9ViAAEN2aUe-50">
          <mxGeometry width="50" height="50" relative="1" as="geometry">
            <mxPoint x="-1030" y="-904" as="sourcePoint" />
            <mxPoint x="-1010" y="-906" as="targetPoint" />
            <Array as="points">
              <mxPoint x="-1030" y="-906" />
              <mxPoint x="-1097" y="-906" />
            </Array>
          </mxGeometry>
        </mxCell>
        <mxCell id="ZsXU7rFgu9ViAAEN2aUe-61" value="SW-ACCE01" style="text;strokeColor=none;fillColor=none;html=1;fontSize=12;fontStyle=1;verticalAlign=middle;align=center;rounded=0;" vertex="1" parent="1">
          <mxGeometry x="-920.3599999999998" y="-500.62" width="25" height="10" as="geometry" />
        </mxCell>
        <mxCell id="ZsXU7rFgu9ViAAEN2aUe-64" value="" style="endArrow=none;html=1;rounded=0;strokeWidth=3;strokeColor=#006EAF;fillColor=#1ba1e2;edgeStyle=orthogonalEdgeStyle;" edge="1" parent="1" source="ZsXU7rFgu9ViAAEN2aUe-77" target="ZsXU7rFgu9ViAAEN2aUe-8">
          <mxGeometry width="50" height="50" relative="1" as="geometry">
            <mxPoint x="-332" y="7" as="sourcePoint" />
            <mxPoint x="-306" y="-170.00185185185194" as="targetPoint" />
            <Array as="points">
              <mxPoint x="-1190" y="30" />
              <mxPoint x="-1430" y="30" />
              <mxPoint x="-1430" y="-550" />
            </Array>
          </mxGeometry>
        </mxCell>
        <mxCell id="ZsXU7rFgu9ViAAEN2aUe-65" value="" style="shape=mxgraph.cisco.buildings.branch_office;sketch=0;html=1;pointerEvents=1;dashed=0;fillColor=#4C0099;strokeColor=#ffffff;strokeWidth=2;verticalLabelPosition=bottom;verticalAlign=top;align=center;outlineConnect=0;rounded=0;" vertex="1" parent="1">
          <mxGeometry x="-2346.09" y="241" width="643.22" height="340" as="geometry" />
        </mxCell>
        <mxCell id="ZsXU7rFgu9ViAAEN2aUe-66" value="" style="shape=mxgraph.cisco.buildings.generic_building;sketch=0;html=1;pointerEvents=1;dashed=0;fillColor=#4C0099;strokeColor=#FFFFFF;strokeWidth=1;verticalLabelPosition=bottom;verticalAlign=top;align=center;outlineConnect=0;movable=1;resizable=1;rotatable=1;deletable=1;editable=1;locked=0;connectable=1;fontColor=#ffffff;gradientColor=none;rounded=0;" vertex="1" parent="1">
          <mxGeometry x="-2359" y="-1308" width="398.86" height="407" as="geometry" />
        </mxCell>
        <mxCell id="ZsXU7rFgu9ViAAEN2aUe-73" value="" style="endArrow=none;html=1;rounded=0;strokeWidth=3;fillColor=#1ba1e2;strokeColor=#006EAF;movable=1;resizable=1;rotatable=1;deletable=1;editable=1;locked=0;connectable=1;edgeStyle=orthogonalEdgeStyle;" edge="1" parent="1" source="ZsXU7rFgu9ViAAEN2aUe-8" target="ZsXU7rFgu9ViAAEN2aUe-6">
          <mxGeometry width="50" height="50" relative="1" as="geometry">
            <mxPoint x="-1856" y="-581" as="sourcePoint" />
            <mxPoint x="-1670" y="-718.0018518518519" as="targetPoint" />
            <Array as="points">
              <mxPoint x="-1760" y="-552" />
              <mxPoint x="-1760" y="-710" />
            </Array>
          </mxGeometry>
        </mxCell>
        <mxCell id="ZsXU7rFgu9ViAAEN2aUe-75" value="" style="endArrow=none;html=1;rounded=0;strokeWidth=3;fillColor=#1ba1e2;strokeColor=#006EAF;movable=1;resizable=1;rotatable=1;deletable=1;editable=1;locked=0;connectable=1;edgeStyle=orthogonalEdgeStyle;" edge="1" parent="1" source="ZsXU7rFgu9ViAAEN2aUe-7" target="ZsXU7rFgu9ViAAEN2aUe-5">
          <mxGeometry width="50" height="50" relative="1" as="geometry">
            <mxPoint x="-1310.5" y="-574" as="sourcePoint" />
            <mxPoint x="-1356.5" y="-732" as="targetPoint" />
            <Array as="points">
              <mxPoint x="-1320" y="-554" />
              <mxPoint x="-1320" y="-720" />
            </Array>
          </mxGeometry>
        </mxCell>
        <mxCell id="ZsXU7rFgu9ViAAEN2aUe-77" value="" style="shape=mxgraph.cisco.switches.simultilayer_switch;sketch=0;html=1;pointerEvents=1;dashed=0;fillColor=#4C0099;strokeColor=#ffffff;strokeWidth=2;verticalLabelPosition=bottom;verticalAlign=top;align=center;outlineConnect=0;rounded=0;" vertex="1" parent="1">
          <mxGeometry x="-1218.7799999999997" y="505" width="58" height="58" as="geometry" />
        </mxCell>
        <mxCell id="ZsXU7rFgu9ViAAEN2aUe-78" value="SW-DIST03" style="text;strokeColor=none;fillColor=none;html=1;fontSize=12;fontStyle=1;verticalAlign=middle;align=center;rounded=0;" vertex="1" parent="1">
          <mxGeometry x="-1202.2799999999997" y="571" width="25" height="10" as="geometry" />
        </mxCell>
        <mxCell id="ZsXU7rFgu9ViAAEN2aUe-81" value="SW-ACCE02" style="text;strokeColor=none;fillColor=none;html=1;fontSize=12;fontStyle=1;verticalAlign=middle;align=center;rounded=0;" vertex="1" parent="1">
          <mxGeometry x="-1258.78" y="1700" width="25" height="10" as="geometry" />
        </mxCell>
        <mxCell id="ZsXU7rFgu9ViAAEN2aUe-82" value="" style="endArrow=none;html=1;rounded=0;strokeWidth=3;strokeColor=#006EAF;fillColor=#1ba1e2;edgeStyle=orthogonalEdgeStyle;exitX=0.87;exitY=0.74;exitDx=0;exitDy=0;exitPerimeter=0;" edge="1" parent="1" source="ZsXU7rFgu9ViAAEN2aUe-36" target="ZsXU7rFgu9ViAAEN2aUe-77">
          <mxGeometry width="50" height="50" relative="1" as="geometry">
            <mxPoint x="-1483.1399999999999" y="702" as="sourcePoint" />
            <mxPoint x="-1594.6399999999999" y="515" as="targetPoint" />
            <Array as="points">
              <mxPoint x="-249" y="1680" />
              <mxPoint x="-249" y="520" />
            </Array>
          </mxGeometry>
        </mxCell>
        <mxCell id="ZsXU7rFgu9ViAAEN2aUe-93" value="" style="sketch=0;aspect=fixed;pointerEvents=1;shadow=0;dashed=0;html=1;strokeColor=#4C0099;labelPosition=center;verticalLabelPosition=bottom;verticalAlign=top;align=center;fillColor=#4C0099;shape=mxgraph.mscae.enterprise.wireless_connection;fontColor=#ffffff;fillStyle=hatch;rotation=90;rounded=0;" vertex="1" parent="1">
          <mxGeometry x="-1846.87" y="864" width="42" height="50" as="geometry" />
        </mxCell>
        <mxCell id="ZsXU7rFgu9ViAAEN2aUe-117" value="" style="sketch=0;aspect=fixed;pointerEvents=1;shadow=0;dashed=0;html=1;strokeColor=#4C0099;labelPosition=center;verticalLabelPosition=bottom;verticalAlign=top;align=center;fillColor=#4C0099;shape=mxgraph.mscae.enterprise.wireless_connection;fontColor=#ffffff;fillStyle=hatch;rotation=135;rounded=0;" vertex="1" parent="1">
          <mxGeometry x="-764.88" y="-214.38" width="36.16" height="43.05" as="geometry" />
        </mxCell>
        <mxCell id="ZsXU7rFgu9ViAAEN2aUe-118" value="" style="sketch=0;aspect=fixed;pointerEvents=1;shadow=0;dashed=0;html=1;strokeColor=#4C0099;labelPosition=center;verticalLabelPosition=bottom;verticalAlign=top;align=center;fillColor=#4C0099;shape=mxgraph.mscae.enterprise.wireless_connection;fontColor=#ffffff;fillStyle=hatch;rotation=50;rounded=0;" vertex="1" parent="1">
          <mxGeometry x="-523" y="-481.87" width="42" height="50" as="geometry" />
        </mxCell>
        <mxCell id="ZsXU7rFgu9ViAAEN2aUe-119" value="" style="sketch=0;aspect=fixed;pointerEvents=1;shadow=0;dashed=0;html=1;strokeColor=#4C0099;labelPosition=center;verticalLabelPosition=bottom;verticalAlign=top;align=center;fillColor=#4C0099;shape=mxgraph.mscae.enterprise.wireless_connection;fontColor=#ffffff;fillStyle=hatch;rotation=52;rounded=0;" vertex="1" parent="1">
          <mxGeometry x="-1505" y="-210" width="42" height="50" as="geometry" />
        </mxCell>
        <mxCell id="ZsXU7rFgu9ViAAEN2aUe-123" value="" style="verticalAlign=top;verticalLabelPosition=bottom;labelPosition=center;align=center;html=1;outlineConnect=0;fillColor=#dae8fc;strokeColor=#4C0099;gradientColor=#4C0099;gradientDirection=north;strokeWidth=2;shape=mxgraph.networks.laptop;rounded=0;" vertex="1" parent="1">
          <mxGeometry x="-1139.05" y="-305" width="78.18" height="43" as="geometry" />
        </mxCell>
        <mxCell id="ZsXU7rFgu9ViAAEN2aUe-124" value="" style="sketch=0;html=1;aspect=fixed;strokeColor=#4C0099;shadow=0;fillColor=#dae8fc;verticalAlign=top;labelPosition=center;verticalLabelPosition=bottom;shape=mxgraph.gcp2.phone_android;gradientColor=#4C0099;rounded=0;" vertex="1" parent="1">
          <mxGeometry x="-759.9199999999998" y="990" width="33.6" height="60" as="geometry" />
        </mxCell>
        <mxCell id="ZsXU7rFgu9ViAAEN2aUe-137" value="&lt;font&gt;MATRIZ - ESCRITÃRIO&lt;/font&gt;" style="text;html=1;fontSize=25;fontStyle=1;verticalAlign=middle;align=center;labelBackgroundColor=#4C0099;fontColor=#FFFFFF;labelBorderColor=none;textShadow=0;rounded=0;" vertex="1" parent="1">
          <mxGeometry x="-1800.0000000000005" y="-1050" width="25" height="10" as="geometry" />
        </mxCell>
        <mxCell id="ZsXU7rFgu9ViAAEN2aUe-140" value="SRV-HOST01" style="text;strokeColor=none;fillColor=none;html=1;fontSize=12;fontStyle=1;verticalAlign=middle;align=center;movable=1;resizable=1;rotatable=1;deletable=1;editable=1;locked=0;connectable=1;rounded=0;" vertex="1" parent="1">
          <mxGeometry x="-1087.37" y="-814" width="25" height="10" as="geometry" />
        </mxCell>
        <mxCell id="ZsXU7rFgu9ViAAEN2aUe-143" value="VSRV-AD01" style="text;strokeColor=none;fillColor=none;html=1;fontSize=12;fontStyle=1;verticalAlign=middle;align=center;movable=1;resizable=1;rotatable=1;deletable=1;editable=1;locked=0;connectable=1;rounded=0;" vertex="1" parent="1">
          <mxGeometry x="-1129.1799999999998" y="-712.5" width="25" height="10" as="geometry" />
        </mxCell>
        <mxCell id="ZsXU7rFgu9ViAAEN2aUe-154" value="" style="endArrow=none;html=1;rounded=0;strokeWidth=2;fillColor=#1ba1e2;strokeColor=#006EAF;movable=1;resizable=1;rotatable=1;deletable=1;editable=1;locked=0;connectable=1;edgeStyle=orthogonalEdgeStyle;" edge="1" parent="1" source="ZsXU7rFgu9ViAAEN2aUe-5" target="ZsXU7rFgu9ViAAEN2aUe-146">
          <mxGeometry width="50" height="50" relative="1" as="geometry">
            <mxPoint x="-1163.5000000000005" y="-319.10476190476174" as="sourcePoint" />
            <mxPoint x="-1097.5" y="-410" as="targetPoint" />
            <Array as="points">
              <mxPoint x="-1270" y="-710" />
              <mxPoint x="-1270" y="-590" />
              <mxPoint x="-810" y="-590" />
              <mxPoint x="-810" y="-787" />
            </Array>
          </mxGeometry>
        </mxCell>
        <mxCell id="ZsXU7rFgu9ViAAEN2aUe-163" value="" style="endArrow=none;html=1;rounded=0;strokeWidth=2;dashed=1;fillColor=#dae8fc;gradientColor=#7ea6e0;strokeColor=#6c8ebf;movable=1;resizable=1;rotatable=1;deletable=1;editable=1;locked=0;connectable=1;entryX=0.09;entryY=0.08;entryDx=0;entryDy=0;entryPerimeter=0;edgeStyle=orthogonalEdgeStyle;" edge="1" parent="1" source="ZsXU7rFgu9ViAAEN2aUe-2" target="ZsXU7rFgu9ViAAEN2aUe-6">
          <mxGeometry width="50" height="50" relative="1" as="geometry">
            <mxPoint x="-1872.0033333333336" y="-973" as="sourcePoint" />
            <mxPoint x="-1618.67" y="-745" as="targetPoint" />
            <Array as="points">
              <mxPoint x="-1760" y="-946" />
              <mxPoint x="-1760" y="-752" />
            </Array>
          </mxGeometry>
        </mxCell>
        <mxCell id="ZsXU7rFgu9ViAAEN2aUe-164" value="" style="endArrow=none;html=1;rounded=0;strokeWidth=2;dashed=1;fillColor=#dae8fc;gradientColor=#7ea6e0;strokeColor=#6c8ebf;movable=1;resizable=1;rotatable=1;deletable=1;editable=1;locked=0;connectable=1;edgeStyle=orthogonalEdgeStyle;" edge="1" parent="1" source="ZsXU7rFgu9ViAAEN2aUe-2" target="ZsXU7rFgu9ViAAEN2aUe-6">
          <mxGeometry width="50" height="50" relative="1" as="geometry">
            <mxPoint x="-1643.4" y="-930" as="sourcePoint" />
            <mxPoint x="-1659.4" y="-742" as="targetPoint" />
            <Array as="points">
              <mxPoint x="-1740" y="-930" />
              <mxPoint x="-1740" y="-770" />
              <mxPoint x="-1645" y="-770" />
            </Array>
          </mxGeometry>
        </mxCell>
        <mxCell id="ZsXU7rFgu9ViAAEN2aUe-165" value="" style="endArrow=none;html=1;rounded=0;strokeWidth=2;dashed=1;fillColor=#dae8fc;gradientColor=#7ea6e0;strokeColor=#6c8ebf;movable=1;resizable=1;rotatable=1;deletable=1;editable=1;locked=0;connectable=1;exitX=0.09;exitY=0.08;exitDx=0;exitDy=0;exitPerimeter=0;edgeStyle=orthogonalEdgeStyle;" edge="1" parent="1" source="ZsXU7rFgu9ViAAEN2aUe-5" target="ZsXU7rFgu9ViAAEN2aUe-1">
          <mxGeometry width="50" height="50" relative="1" as="geometry">
            <mxPoint x="-1500" y="-808" as="sourcePoint" />
            <mxPoint x="-1300" y="-810" as="targetPoint" />
            <Array as="points">
              <mxPoint x="-1320" y="-752" />
              <mxPoint x="-1320" y="-960" />
            </Array>
          </mxGeometry>
        </mxCell>
        <mxCell id="ZsXU7rFgu9ViAAEN2aUe-166" value="" style="endArrow=none;html=1;rounded=0;strokeWidth=2;dashed=1;fillColor=#dae8fc;gradientColor=#7ea6e0;strokeColor=#6c8ebf;movable=1;resizable=1;rotatable=1;deletable=1;editable=1;locked=0;connectable=1;entryX=1.121;entryY=0.597;entryDx=0;entryDy=0;entryPerimeter=0;exitX=0.759;exitY=-0.052;exitDx=0;exitDy=0;exitPerimeter=0;edgeStyle=orthogonalEdgeStyle;" edge="1" parent="1" source="ZsXU7rFgu9ViAAEN2aUe-5" target="ZsXU7rFgu9ViAAEN2aUe-1">
          <mxGeometry width="50" height="50" relative="1" as="geometry">
            <mxPoint x="-1410" y="-750" as="sourcePoint" />
            <mxPoint x="-1403" y="-912" as="targetPoint" />
            <Array as="points">
              <mxPoint x="-1400" y="-770" />
              <mxPoint x="-1340" y="-770" />
              <mxPoint x="-1340" y="-940" />
            </Array>
          </mxGeometry>
        </mxCell>
        <mxCell id="ZsXU7rFgu9ViAAEN2aUe-168" value="" style="verticalLabelPosition=bottom;html=1;verticalAlign=top;align=center;strokeColor=#36393d;fillColor=#000000;shape=mxgraph.azure.github_code;pointerEvents=1;rounded=0;" vertex="1" parent="1">
          <mxGeometry x="280" y="-991" width="78" height="78" as="geometry" />
        </mxCell>
        <mxCell id="ZsXU7rFgu9ViAAEN2aUe-190" value="" style="verticalAlign=top;verticalLabelPosition=bottom;labelPosition=center;align=center;html=1;outlineConnect=0;fillColor=#dae8fc;strokeColor=#4C0099;gradientColor=#4C0099;gradientDirection=north;strokeWidth=2;shape=mxgraph.networks.laptop;rounded=0;" vertex="1" parent="1">
          <mxGeometry x="-220.0000000000001" y="-316" width="78.18" height="43" as="geometry" />
        </mxCell>
        <mxCell id="ZsXU7rFgu9ViAAEN2aUe-192" value="" style="verticalAlign=top;verticalLabelPosition=bottom;labelPosition=center;align=center;html=1;outlineConnect=0;fillColor=#dae8fc;strokeColor=#4C0099;gradientColor=#4C0099;gradientDirection=north;strokeWidth=2;shape=mxgraph.networks.laptop;rounded=0;" vertex="1" parent="1">
          <mxGeometry x="-370" y="-90" width="78.18" height="43" as="geometry" />
        </mxCell>
        <mxCell id="ZsXU7rFgu9ViAAEN2aUe-200" value="DATABASE" style="text;strokeColor=none;fillColor=none;html=1;fontSize=12;fontStyle=1;verticalAlign=middle;align=center;rounded=0;" vertex="1" parent="1">
          <mxGeometry x="1145" y="-458.62" width="25" height="10" as="geometry" />
        </mxCell>
        <mxCell id="ZsXU7rFgu9ViAAEN2aUe-201" value="BACKEND" style="text;strokeColor=none;fillColor=none;html=1;fontSize=12;fontStyle=1;verticalAlign=middle;align=center;rounded=0;" vertex="1" parent="1">
          <mxGeometry x="847.6199999999999" y="-410" width="25" height="10" as="geometry" />
        </mxCell>
        <mxCell id="ZsXU7rFgu9ViAAEN2aUe-203" value="AZURE MONITOR" style="text;strokeColor=none;fillColor=none;html=1;fontSize=12;fontStyle=1;verticalAlign=middle;align=center;rounded=0;" vertex="1" parent="1">
          <mxGeometry x="929.3599999999999" y="-89" width="25" height="10" as="geometry" />
        </mxCell>
        <mxCell id="ZsXU7rFgu9ViAAEN2aUe-204" value="GITHUB REPO" style="text;strokeColor=none;fillColor=none;html=1;fontSize=12;fontStyle=1;verticalAlign=middle;align=center;rounded=0;" vertex="1" parent="1">
          <mxGeometry x="306.5" y="-907" width="25" height="10" as="geometry" />
        </mxCell>
        <mxCell id="ZsXU7rFgu9ViAAEN2aUe-208" value="" style="endArrow=none;html=1;rounded=0;strokeWidth=2;fillColor=#1ba1e2;strokeColor=#006EAF;movable=1;resizable=1;rotatable=1;deletable=1;editable=1;locked=0;connectable=1;edgeStyle=orthogonalEdgeStyle;" edge="1" parent="1" source="ZsXU7rFgu9ViAAEN2aUe-5">
          <mxGeometry width="50" height="50" relative="1" as="geometry">
            <mxPoint x="-1380" y="-730" as="sourcePoint" />
            <mxPoint x="-1164" y="-700" as="targetPoint" />
            <Array as="points">
              <mxPoint x="-1241" y="-730" />
              <mxPoint x="-1241" y="-700" />
            </Array>
          </mxGeometry>
        </mxCell>
        <mxCell id="ZsXU7rFgu9ViAAEN2aUe-209" value="" style="verticalLabelPosition=bottom;html=1;verticalAlign=top;align=center;shape=mxgraph.azure.azure_website;pointerEvents=1;rounded=0;fillColor=#5FA0EF;strokeColor=#FFFFFF;" vertex="1" parent="1">
          <mxGeometry x="792.5699999999999" y="-642" width="50" height="50" as="geometry" />
        </mxCell>
        <mxCell id="ZsXU7rFgu9ViAAEN2aUe-210" value="" style="verticalLabelPosition=bottom;html=1;verticalAlign=top;align=center;strokeColor=none;fillColor=#5fa0ef;shape=mxgraph.azure.azure_active_directory;rounded=0;" vertex="1" parent="1">
          <mxGeometry x="300" y="-759" width="85.5" height="90" as="geometry" />
        </mxCell>
        <mxCell id="ZsXU7rFgu9ViAAEN2aUe-222" value="" style="endArrow=none;html=1;rounded=0;strokeWidth=3;fillColor=#dae8fc;strokeColor=#006EAF;movable=1;resizable=1;rotatable=1;deletable=1;editable=1;locked=0;connectable=1;edgeStyle=orthogonalEdgeStyle;entryX=0.024;entryY=0.533;entryDx=0;entryDy=0;entryPerimeter=0;exitX=1;exitY=0.58;exitDx=0;exitDy=0;exitPerimeter=0;" edge="1" parent="1" source="ZsXU7rFgu9ViAAEN2aUe-210">
          <mxGeometry width="50" height="50" relative="1" as="geometry">
            <mxPoint x="390" y="-707" as="sourcePoint" />
            <mxPoint x="486.0799999999999" y="-510.05999999999995" as="targetPoint" />
            <Array as="points">
              <mxPoint x="450" y="-707" />
              <mxPoint x="450" y="-510" />
            </Array>
          </mxGeometry>
        </mxCell>
        <mxCell id="ZsXU7rFgu9ViAAEN2aUe-223" value="AZURE ACTIVE DIRECTORY" style="text;strokeColor=none;fillColor=none;html=1;fontSize=12;fontStyle=1;verticalAlign=middle;align=center;rounded=0;" vertex="1" parent="1">
          <mxGeometry x="343.28" y="-659" width="25" height="10" as="geometry" />
        </mxCell>
        <mxCell id="ZsXU7rFgu9ViAAEN2aUe-237" value="" style="endArrow=none;html=1;rounded=0;strokeWidth=3;fillColor=#1ba1e2;strokeColor=#006EAF;edgeStyle=orthogonalEdgeStyle;" edge="1" parent="1" source="ZsXU7rFgu9ViAAEN2aUe-9" target="ZsXU7rFgu9ViAAEN2aUe-283">
          <mxGeometry width="50" height="50" relative="1" as="geometry">
            <mxPoint x="-1073.64" y="-410" as="sourcePoint" />
            <mxPoint x="-840" y="-430" as="targetPoint" />
            <Array as="points">
              <mxPoint x="-860" y="-498" />
              <mxPoint x="-832" y="-498" />
              <mxPoint x="-832" y="-464" />
              <mxPoint x="-726" y="-464" />
            </Array>
          </mxGeometry>
        </mxCell>
        <mxCell id="ZsXU7rFgu9ViAAEN2aUe-263" value="" style="endArrow=none;html=1;rounded=0;strokeWidth=3;fillColor=#1ba1e2;strokeColor=#006EAF;movable=1;resizable=1;rotatable=1;deletable=1;editable=1;locked=0;connectable=1;edgeStyle=orthogonalEdgeStyle;" edge="1" parent="1" source="ZsXU7rFgu9ViAAEN2aUe-5" target="ZsXU7rFgu9ViAAEN2aUe-2">
          <mxGeometry width="50" height="50" relative="1" as="geometry">
            <mxPoint x="-1620" y="-747" as="sourcePoint" />
            <mxPoint x="-1432" y="-920" as="targetPoint" />
            <Array as="points">
              <mxPoint x="-1410" y="-820" />
              <mxPoint x="-1510" y="-820" />
              <mxPoint x="-1510" y="-920" />
            </Array>
          </mxGeometry>
        </mxCell>
        <mxCell id="ZsXU7rFgu9ViAAEN2aUe-271" value="&lt;font&gt;MATRIZ - ARMAZÃM&lt;/font&gt;" style="text;html=1;fontSize=25;fontStyle=1;verticalAlign=middle;align=center;labelBackgroundColor=#4C0099;fontColor=#FFFFFF;labelBorderColor=none;textShadow=0;rounded=0;" vertex="1" parent="1">
          <mxGeometry x="-1554.1800000000005" y="431" width="25" height="10" as="geometry" />
        </mxCell>
        <mxCell id="ZsXU7rFgu9ViAAEN2aUe-278" value="&lt;font&gt;MICROSOFT&amp;nbsp;AZURE&lt;/font&gt;" style="text;html=1;fontSize=25;fontStyle=1;verticalAlign=middle;align=center;labelBackgroundColor=#4C0099;fontColor=#FFFFFF;labelBorderColor=none;textShadow=0;rounded=0;" vertex="1" parent="1">
          <mxGeometry x="1129.9999999999995" y="-793.5" width="25" height="10" as="geometry" />
        </mxCell>
        <mxCell id="ZsXU7rFgu9ViAAEN2aUe-279" value="" style="shape=mxgraph.cisco.wireless.wireless_transport;sketch=0;html=1;pointerEvents=1;dashed=0;fillColor=#4C0099;strokeColor=#ffffff;strokeWidth=2;verticalLabelPosition=bottom;verticalAlign=top;align=center;outlineConnect=0;rounded=0;" vertex="1" parent="1">
          <mxGeometry x="-1540" y="-299" width="77" height="54" as="geometry" />
        </mxCell>
        <mxCell id="ZsXU7rFgu9ViAAEN2aUe-283" value="" style="shape=mxgraph.cisco.wireless.wireless_transport;sketch=0;html=1;pointerEvents=1;dashed=0;fillColor=#4C0099;strokeColor=#ffffff;strokeWidth=2;verticalLabelPosition=bottom;verticalAlign=top;align=center;outlineConnect=0;rounded=0;" vertex="1" parent="1">
          <mxGeometry x="-764.88" y="-305" width="77" height="54" as="geometry" />
        </mxCell>
        <mxCell id="ZsXU7rFgu9ViAAEN2aUe-285" value="" style="shape=mxgraph.cisco.wireless.wireless_transport;sketch=0;html=1;pointerEvents=1;dashed=0;fillColor=#4C0099;strokeColor=#ffffff;strokeWidth=2;verticalLabelPosition=bottom;verticalAlign=top;align=center;outlineConnect=0;rounded=0;" vertex="1" parent="1">
          <mxGeometry x="-580" y="-553" width="77" height="54" as="geometry" />
        </mxCell>
        <mxCell id="ZsXU7rFgu9ViAAEN2aUe-286" value="" style="shape=mxgraph.cisco.wireless.wireless_transport;sketch=0;html=1;pointerEvents=1;dashed=0;fillColor=#4C0099;strokeColor=#ffffff;strokeWidth=2;verticalLabelPosition=bottom;verticalAlign=top;align=center;outlineConnect=0;rounded=0;" vertex="1" parent="1">
          <mxGeometry x="-210" y="-561" width="77" height="54" as="geometry" />
        </mxCell>
        <mxCell id="ZsXU7rFgu9ViAAEN2aUe-287" value="" style="shape=mxgraph.cisco.wireless.wireless_transport;sketch=0;html=1;pointerEvents=1;dashed=0;fillColor=#4C0099;strokeColor=#ffffff;strokeWidth=2;verticalLabelPosition=bottom;verticalAlign=top;align=center;outlineConnect=0;rounded=0;" vertex="1" parent="1">
          <mxGeometry x="-1928" y="-370" width="77" height="54" as="geometry" />
        </mxCell>
        <mxCell id="ZsXU7rFgu9ViAAEN2aUe-288" value="" style="shape=mxgraph.cisco.wireless.wireless_transport;sketch=0;html=1;pointerEvents=1;dashed=0;fillColor=#4C0099;strokeColor=#ffffff;strokeWidth=2;verticalLabelPosition=bottom;verticalAlign=top;align=center;outlineConnect=0;rounded=0;" vertex="1" parent="1">
          <mxGeometry x="-2259.41" y="-461" width="77" height="54" as="geometry" />
        </mxCell>
        <mxCell id="ZsXU7rFgu9ViAAEN2aUe-161" value="" style="sketch=0;html=1;aspect=fixed;strokeColor=#4C0099;shadow=0;fillColor=#dae8fc;verticalAlign=top;labelPosition=center;verticalLabelPosition=bottom;shape=mxgraph.gcp2.phone_android;gradientColor=#4C0099;rounded=0;" vertex="1" parent="1">
          <mxGeometry x="-673.69" y="-90" width="33.6" height="60" as="geometry" />
        </mxCell>
        <mxCell id="ZsXU7rFgu9ViAAEN2aUe-291" value="AP-01" style="text;strokeColor=none;fillColor=none;html=1;fontSize=12;fontStyle=1;verticalAlign=middle;align=center;rounded=0;" vertex="1" parent="1">
          <mxGeometry x="-2233.41" y="-446.62" width="25" height="10" as="geometry" />
        </mxCell>
        <mxCell id="ZsXU7rFgu9ViAAEN2aUe-292" value="AP-03" style="text;strokeColor=none;fillColor=none;html=1;fontSize=12;fontStyle=1;verticalAlign=middle;align=center;rounded=0;" vertex="1" parent="1">
          <mxGeometry x="-1514" y="-243" width="25" height="10" as="geometry" />
        </mxCell>
        <mxCell id="ZsXU7rFgu9ViAAEN2aUe-293" value="AP-02" style="text;strokeColor=none;fillColor=none;html=1;fontSize=12;fontStyle=1;verticalAlign=middle;align=center;rounded=0;" vertex="1" parent="1">
          <mxGeometry x="-1904" y="-309" width="25" height="10" as="geometry" />
        </mxCell>
        <mxCell id="ZsXU7rFgu9ViAAEN2aUe-294" value="AP-04" style="text;strokeColor=none;fillColor=none;html=1;fontSize=12;fontStyle=1;verticalAlign=middle;align=center;rounded=0;" vertex="1" parent="1">
          <mxGeometry x="-740.3799999999999" y="-246.25" width="25" height="10" as="geometry" />
        </mxCell>
        <mxCell id="ZsXU7rFgu9ViAAEN2aUe-296" value="AP-05" style="text;strokeColor=none;fillColor=none;html=1;fontSize=12;fontStyle=1;verticalAlign=middle;align=center;rounded=0;" vertex="1" parent="1">
          <mxGeometry x="-553.9999999999999" y="-493" width="25" height="10" as="geometry" />
        </mxCell>
        <mxCell id="ZsXU7rFgu9ViAAEN2aUe-297" value="AP-06" style="text;strokeColor=none;fillColor=none;html=1;fontSize=12;fontStyle=1;verticalAlign=middle;align=center;rounded=0;" vertex="1" parent="1">
          <mxGeometry x="-183.9999999999999" y="-500.62" width="25" height="10" as="geometry" />
        </mxCell>
        <mxCell id="ZsXU7rFgu9ViAAEN2aUe-298" value="" style="endArrow=none;html=1;rounded=0;strokeWidth=3;fillColor=#1ba1e2;strokeColor=#006EAF;exitX=0.98;exitY=0.5;exitDx=0;exitDy=0;exitPerimeter=0;" edge="1" parent="1" source="ZsXU7rFgu9ViAAEN2aUe-9" target="ZsXU7rFgu9ViAAEN2aUe-285">
          <mxGeometry width="50" height="50" relative="1" as="geometry">
            <mxPoint x="-795" y="-555" as="sourcePoint" />
            <mxPoint x="-771" y="-477" as="targetPoint" />
          </mxGeometry>
        </mxCell>
        <mxCell id="ZsXU7rFgu9ViAAEN2aUe-299" value="" style="endArrow=none;html=1;rounded=0;strokeWidth=3;fillColor=#1ba1e2;strokeColor=#006EAF;edgeStyle=orthogonalEdgeStyle;" edge="1" parent="1" source="ZsXU7rFgu9ViAAEN2aUe-9" target="ZsXU7rFgu9ViAAEN2aUe-286">
          <mxGeometry width="50" height="50" relative="1" as="geometry">
            <mxPoint x="-840" y="-570" as="sourcePoint" />
            <mxPoint x="-589" y="-568" as="targetPoint" />
            <Array as="points">
              <mxPoint x="-870" y="-580" />
              <mxPoint x="-172" y="-580" />
            </Array>
          </mxGeometry>
        </mxCell>
        <mxCell id="ZsXU7rFgu9ViAAEN2aUe-300" value="" style="sketch=0;aspect=fixed;pointerEvents=1;shadow=0;dashed=0;html=1;strokeColor=#4C0099;labelPosition=center;verticalLabelPosition=bottom;verticalAlign=top;align=center;fillColor=#4C0099;shape=mxgraph.mscae.enterprise.wireless_connection;fontColor=#ffffff;fillStyle=hatch;rotation=135;rounded=0;" vertex="1" parent="1">
          <mxGeometry x="-268.5" y="-511" width="42" height="50" as="geometry" />
        </mxCell>
        <mxCell id="ZsXU7rFgu9ViAAEN2aUe-304" value="" style="endArrow=none;html=1;rounded=0;strokeWidth=3;fillColor=#1ba1e2;strokeColor=#006EAF;edgeStyle=orthogonalEdgeStyle;entryX=0.16;entryY=0.23;entryDx=0;entryDy=0;entryPerimeter=0;" edge="1" parent="1" source="ZsXU7rFgu9ViAAEN2aUe-7" target="ZsXU7rFgu9ViAAEN2aUe-9">
          <mxGeometry width="50" height="50" relative="1" as="geometry">
            <mxPoint x="-1593" y="-450" as="sourcePoint" />
            <mxPoint x="-895" y="-454" as="targetPoint" />
            <Array as="points">
              <mxPoint x="-897" y="-540" />
            </Array>
          </mxGeometry>
        </mxCell>
        <mxCell id="ZsXU7rFgu9ViAAEN2aUe-308" value="" style="sketch=0;aspect=fixed;pointerEvents=1;shadow=0;dashed=0;html=1;strokeColor=#4C0099;labelPosition=center;verticalLabelPosition=bottom;verticalAlign=top;align=center;fillColor=#4C0099;shape=mxgraph.mscae.enterprise.wireless_connection;fontColor=#ffffff;fillStyle=hatch;rotation=90;rounded=0;" vertex="1" parent="1">
          <mxGeometry x="-1910.5" y="-283" width="42" height="50" as="geometry" />
        </mxCell>
        <mxCell id="ZsXU7rFgu9ViAAEN2aUe-310" value="" style="sketch=0;aspect=fixed;pointerEvents=1;shadow=0;dashed=0;html=1;strokeColor=#4C0099;labelPosition=center;verticalLabelPosition=bottom;verticalAlign=top;align=center;fillColor=#4C0099;shape=mxgraph.mscae.enterprise.wireless_connection;fontColor=#ffffff;fillStyle=hatch;rotation=90;rounded=0;" vertex="1" parent="1">
          <mxGeometry x="-2241.9100000000003" y="-363.75" width="42" height="50" as="geometry" />
        </mxCell>
        <mxCell id="ZsXU7rFgu9ViAAEN2aUe-311" value="" style="verticalAlign=top;verticalLabelPosition=bottom;labelPosition=center;align=center;html=1;outlineConnect=0;fillColor=#dae8fc;strokeColor=#4C0099;gradientColor=#4C0099;gradientDirection=north;strokeWidth=2;shape=mxgraph.networks.laptop;rounded=0;" vertex="1" parent="1">
          <mxGeometry x="-2310" y="-236.5" width="78.18" height="43" as="geometry" />
        </mxCell>
        <mxCell id="ZsXU7rFgu9ViAAEN2aUe-312" value="" style="verticalAlign=top;verticalLabelPosition=bottom;labelPosition=center;align=center;html=1;outlineConnect=0;fillColor=#dae8fc;strokeColor=#4C0099;gradientColor=#4C0099;gradientDirection=north;strokeWidth=2;shape=mxgraph.networks.laptop;rounded=0;" vertex="1" parent="1">
          <mxGeometry x="-1881.9999999999998" y="-60" width="78.18" height="43" as="geometry" />
        </mxCell>
        <mxCell id="ZsXU7rFgu9ViAAEN2aUe-313" value="" style="sketch=0;html=1;aspect=fixed;strokeColor=#4C0099;shadow=0;fillColor=#dae8fc;verticalAlign=top;labelPosition=center;verticalLabelPosition=bottom;shape=mxgraph.gcp2.phone_android;gradientColor=#4C0099;rounded=0;" vertex="1" parent="1">
          <mxGeometry x="-1630" y="-120" width="33.6" height="60" as="geometry" />
        </mxCell>
        <mxCell id="ZsXU7rFgu9ViAAEN2aUe-314" value="" style="verticalAlign=top;verticalLabelPosition=bottom;labelPosition=center;align=center;html=1;outlineConnect=0;fillColor=#dae8fc;strokeColor=#4C0099;gradientColor=#4C0099;gradientDirection=north;strokeWidth=2;shape=mxgraph.networks.laptop;rounded=0;" vertex="1" parent="1">
          <mxGeometry x="-2160" y="-97" width="78.18" height="43" as="geometry" />
        </mxCell>
        <mxCell id="ZsXU7rFgu9ViAAEN2aUe-315" value="" style="endArrow=none;html=1;rounded=0;strokeWidth=3;fillColor=#1ba1e2;strokeColor=#006EAF;edgeStyle=orthogonalEdgeStyle;" edge="1" parent="1" source="ZsXU7rFgu9ViAAEN2aUe-288" target="ZsXU7rFgu9ViAAEN2aUe-8">
          <mxGeometry width="50" height="50" relative="1" as="geometry">
            <mxPoint x="-2231.82" y="-507" as="sourcePoint" />
            <mxPoint x="-1790.8200000000002" y="-506" as="targetPoint" />
            <Array as="points">
              <mxPoint x="-2221" y="-540" />
            </Array>
          </mxGeometry>
        </mxCell>
        <mxCell id="ZsXU7rFgu9ViAAEN2aUe-316" value="AP-01" style="text;strokeColor=none;fillColor=none;html=1;fontSize=12;fontStyle=1;verticalAlign=middle;align=center;rounded=0;" vertex="1" parent="1">
          <mxGeometry x="-2241.91" y="-400" width="25" height="10" as="geometry" />
        </mxCell>
        <mxCell id="ZsXU7rFgu9ViAAEN2aUe-317" value="" style="endArrow=none;html=1;rounded=0;strokeWidth=3;fillColor=#1ba1e2;strokeColor=#006EAF;edgeStyle=orthogonalEdgeStyle;" edge="1" parent="1" source="ZsXU7rFgu9ViAAEN2aUe-287" target="ZsXU7rFgu9ViAAEN2aUe-8">
          <mxGeometry width="50" height="50" relative="1" as="geometry">
            <mxPoint x="-2090" y="-411" as="sourcePoint" />
            <mxPoint x="-1612" y="-490" as="targetPoint" />
            <Array as="points">
              <mxPoint x="-1870" y="-390" />
              <mxPoint x="-1830" y="-390" />
              <mxPoint x="-1830" y="-530" />
            </Array>
          </mxGeometry>
        </mxCell>
        <mxCell id="ZsXU7rFgu9ViAAEN2aUe-318" value="" style="endArrow=none;html=1;rounded=0;strokeWidth=3;fillColor=#1ba1e2;strokeColor=#006EAF;edgeStyle=orthogonalEdgeStyle;entryX=0.92;entryY=0.89;entryDx=0;entryDy=0;entryPerimeter=0;" edge="1" parent="1" source="ZsXU7rFgu9ViAAEN2aUe-279" target="ZsXU7rFgu9ViAAEN2aUe-8">
          <mxGeometry width="50" height="50" relative="1" as="geometry">
            <mxPoint x="-1624" y="-300" as="sourcePoint" />
            <mxPoint x="-1497" y="-460" as="targetPoint" />
            <Array as="points">
              <mxPoint x="-1502" y="-529" />
            </Array>
          </mxGeometry>
        </mxCell>
        <mxCell id="ZsXU7rFgu9ViAAEN2aUe-321" value="" style="sketch=0;html=1;aspect=fixed;strokeColor=#4C0099;shadow=0;fillColor=#dae8fc;verticalAlign=top;labelPosition=center;verticalLabelPosition=bottom;shape=mxgraph.gcp2.phone_android;gradientColor=#4C0099;rounded=0;" vertex="1" parent="1">
          <mxGeometry x="-1776.6" y="-180" width="33.6" height="60" as="geometry" />
        </mxCell>
        <mxCell id="ZsXU7rFgu9ViAAEN2aUe-323" value="" style="verticalAlign=top;verticalLabelPosition=bottom;labelPosition=center;align=center;html=1;outlineConnect=0;fillColor=#dae8fc;strokeColor=#4C0099;gradientColor=#4C0099;gradientDirection=north;strokeWidth=2;shape=mxgraph.networks.laptop;rounded=0;" vertex="1" parent="1">
          <mxGeometry x="-926.8199999999999" y="-40" width="78.18" height="43" as="geometry" />
        </mxCell>
        <mxCell id="ZsXU7rFgu9ViAAEN2aUe-324" value="" style="verticalAlign=top;verticalLabelPosition=bottom;labelPosition=center;align=center;html=1;outlineConnect=0;fillColor=#dae8fc;strokeColor=#4C0099;gradientColor=#4C0099;gradientDirection=north;strokeWidth=2;shape=mxgraph.networks.laptop;rounded=0;" vertex="1" parent="1">
          <mxGeometry x="-1220" y="-120" width="78.18" height="43" as="geometry" />
        </mxCell>
        <mxCell id="ZsXU7rFgu9ViAAEN2aUe-326" value="" style="verticalAlign=top;verticalLabelPosition=bottom;labelPosition=center;align=center;html=1;outlineConnect=0;fillColor=#dae8fc;strokeColor=#4C0099;gradientColor=#4C0099;gradientDirection=north;strokeWidth=2;shape=mxgraph.networks.laptop;rounded=0;" vertex="1" parent="1">
          <mxGeometry x="-480.99999999999994" y="-299.5" width="78.18" height="43" as="geometry" />
        </mxCell>
        <mxCell id="ZsXU7rFgu9ViAAEN2aUe-350" value="" style="verticalLabelPosition=bottom;align=center;dashed=0;html=1;verticalAlign=top;shape=mxgraph.pid.filters.liquid_Filter_(bag,_candle,_cartridge);rounded=0;" vertex="1" parent="1">
          <mxGeometry x="-2204.46" y="792" width="100" height="590" as="geometry" />
        </mxCell>
        <mxCell id="ZsXU7rFgu9ViAAEN2aUe-356" value="" style="shape=mxgraph.cisco.wireless.wireless_transport;sketch=0;html=1;pointerEvents=1;dashed=0;fillColor=#4C0099;strokeColor=#ffffff;strokeWidth=2;verticalLabelPosition=bottom;verticalAlign=top;align=center;outlineConnect=0;rounded=0;" vertex="1" parent="1">
          <mxGeometry x="-1862.3699999999997" y="794" width="77" height="54" as="geometry" />
        </mxCell>
        <mxCell id="ZsXU7rFgu9ViAAEN2aUe-357" value="" style="shape=mxgraph.cisco.wireless.wireless_transport;sketch=0;html=1;pointerEvents=1;dashed=0;fillColor=#4C0099;strokeColor=#ffffff;strokeWidth=2;verticalLabelPosition=bottom;verticalAlign=top;align=center;outlineConnect=0;rounded=0;" vertex="1" parent="1">
          <mxGeometry x="-2081.46" y="1328" width="77" height="54" as="geometry" />
        </mxCell>
        <mxCell id="ZsXU7rFgu9ViAAEN2aUe-358" value="" style="verticalLabelPosition=bottom;align=center;dashed=0;html=1;verticalAlign=top;shape=mxgraph.pid.filters.liquid_Filter_(bag,_candle,_cartridge);rounded=0;" vertex="1" parent="1">
          <mxGeometry x="-1984.46" y="792" width="100" height="590" as="geometry" />
        </mxCell>
        <mxCell id="ZsXU7rFgu9ViAAEN2aUe-359" value="" style="verticalLabelPosition=bottom;align=center;dashed=0;html=1;verticalAlign=top;shape=mxgraph.pid.filters.liquid_Filter_(bag,_candle,_cartridge);rounded=0;" vertex="1" parent="1">
          <mxGeometry x="-1765.37" y="794" width="100" height="590" as="geometry" />
        </mxCell>
        <mxCell id="ZsXU7rFgu9ViAAEN2aUe-362" value="" style="shape=mxgraph.cisco.wireless.wireless_transport;sketch=0;html=1;pointerEvents=1;dashed=0;fillColor=#4C0099;strokeColor=#ffffff;strokeWidth=2;verticalLabelPosition=bottom;verticalAlign=top;align=center;outlineConnect=0;rounded=0;" vertex="1" parent="1">
          <mxGeometry x="-1645.4099999999999" y="1329" width="77" height="54" as="geometry" />
        </mxCell>
        <mxCell id="ZsXU7rFgu9ViAAEN2aUe-363" value="" style="verticalLabelPosition=bottom;align=center;dashed=0;html=1;verticalAlign=top;shape=mxgraph.pid.filters.liquid_Filter_(bag,_candle,_cartridge);rounded=0;" vertex="1" parent="1">
          <mxGeometry x="-1548.41" y="793" width="100" height="590" as="geometry" />
        </mxCell>
        <mxCell id="ZsXU7rFgu9ViAAEN2aUe-365" value="" style="verticalLabelPosition=bottom;align=center;dashed=0;html=1;verticalAlign=top;shape=mxgraph.pid.filters.liquid_Filter_(bag,_candle,_cartridge);rounded=0;" vertex="1" parent="1">
          <mxGeometry x="-1344.87" y="790" width="100" height="590" as="geometry" />
        </mxCell>
        <mxCell id="ZsXU7rFgu9ViAAEN2aUe-366" value="" style="shape=mxgraph.cisco.wireless.wireless_transport;sketch=0;html=1;pointerEvents=1;dashed=0;fillColor=#4C0099;strokeColor=#ffffff;strokeWidth=2;verticalLabelPosition=bottom;verticalAlign=top;align=center;outlineConnect=0;rounded=0;" vertex="1" parent="1">
          <mxGeometry x="-1002.7799999999997" y="792" width="77" height="54" as="geometry" />
        </mxCell>
        <mxCell id="ZsXU7rFgu9ViAAEN2aUe-367" value="" style="shape=mxgraph.cisco.wireless.wireless_transport;sketch=0;html=1;pointerEvents=1;dashed=0;fillColor=#4C0099;strokeColor=#ffffff;strokeWidth=2;verticalLabelPosition=bottom;verticalAlign=top;align=center;outlineConnect=0;rounded=0;" vertex="1" parent="1">
          <mxGeometry x="-1221.87" y="1326" width="77" height="54" as="geometry" />
        </mxCell>
        <mxCell id="ZsXU7rFgu9ViAAEN2aUe-368" value="" style="verticalLabelPosition=bottom;align=center;dashed=0;html=1;verticalAlign=top;shape=mxgraph.pid.filters.liquid_Filter_(bag,_candle,_cartridge);rounded=0;" vertex="1" parent="1">
          <mxGeometry x="-1124.87" y="790" width="100" height="590" as="geometry" />
        </mxCell>
        <mxCell id="ZsXU7rFgu9ViAAEN2aUe-369" value="" style="verticalLabelPosition=bottom;align=center;dashed=0;html=1;verticalAlign=top;shape=mxgraph.pid.filters.liquid_Filter_(bag,_candle,_cartridge);rounded=0;" vertex="1" parent="1">
          <mxGeometry x="-905.7799999999997" y="792" width="100" height="590" as="geometry" />
        </mxCell>
        <mxCell id="ZsXU7rFgu9ViAAEN2aUe-370" value="" style="shape=mxgraph.cisco.wireless.wireless_transport;sketch=0;html=1;pointerEvents=1;dashed=0;fillColor=#4C0099;strokeColor=#ffffff;strokeWidth=2;verticalLabelPosition=bottom;verticalAlign=top;align=center;outlineConnect=0;rounded=0;" vertex="1" parent="1">
          <mxGeometry x="-785.8199999999997" y="1327" width="77" height="54" as="geometry" />
        </mxCell>
        <mxCell id="ZsXU7rFgu9ViAAEN2aUe-371" value="" style="verticalLabelPosition=bottom;align=center;dashed=0;html=1;verticalAlign=top;shape=mxgraph.pid.filters.liquid_Filter_(bag,_candle,_cartridge);rounded=0;" vertex="1" parent="1">
          <mxGeometry x="-688.8200000000002" y="791" width="100" height="590" as="geometry" />
        </mxCell>
        <mxCell id="ZsXU7rFgu9ViAAEN2aUe-372" value="" style="shape=mxgraph.cisco.wireless.wireless_transport;sketch=0;html=1;pointerEvents=1;dashed=0;fillColor=#4C0099;strokeColor=#ffffff;strokeWidth=2;verticalLabelPosition=bottom;verticalAlign=top;align=center;outlineConnect=0;rounded=0;" vertex="1" parent="1">
          <mxGeometry x="-1434.4599999999998" y="794" width="77" height="54" as="geometry" />
        </mxCell>
        <mxCell id="ZsXU7rFgu9ViAAEN2aUe-373" value="" style="verticalLabelPosition=bottom;align=center;dashed=0;html=1;verticalAlign=top;shape=mxgraph.pid.filters.liquid_Filter_(bag,_candle,_cartridge);rounded=0;" vertex="1" parent="1">
          <mxGeometry x="-487.10000000000014" y="791" width="100" height="590" as="geometry" />
        </mxCell>
        <mxCell id="ZsXU7rFgu9ViAAEN2aUe-374" value="" style="shape=mxgraph.cisco.wireless.wireless_transport;sketch=0;html=1;pointerEvents=1;dashed=0;fillColor=#4C0099;strokeColor=#ffffff;strokeWidth=2;verticalLabelPosition=bottom;verticalAlign=top;align=center;outlineConnect=0;rounded=0;" vertex="1" parent="1">
          <mxGeometry x="-576.8199999999997" y="790" width="77" height="54" as="geometry" />
        </mxCell>
        <mxCell id="ZsXU7rFgu9ViAAEN2aUe-376" value="RUA 1" style="text;strokeColor=none;fillColor=none;html=1;fontSize=12;fontStyle=1;verticalAlign=middle;align=center;rounded=0;" vertex="1" parent="1">
          <mxGeometry x="-2162.19" y="1390" width="25" height="10" as="geometry" />
        </mxCell>
        <mxCell id="ZsXU7rFgu9ViAAEN2aUe-378" value="RUA 2" style="text;strokeColor=none;fillColor=none;html=1;fontSize=12;fontStyle=1;verticalAlign=middle;align=center;rounded=0;" vertex="1" parent="1">
          <mxGeometry x="-1938.7799999999997" y="1390" width="25" height="10" as="geometry" />
        </mxCell>
        <mxCell id="ZsXU7rFgu9ViAAEN2aUe-379" value="RUA 3" style="text;strokeColor=none;fillColor=none;html=1;fontSize=12;fontStyle=1;verticalAlign=middle;align=center;rounded=0;" vertex="1" parent="1">
          <mxGeometry x="-1727.87" y="1390" width="25" height="10" as="geometry" />
        </mxCell>
        <mxCell id="ZsXU7rFgu9ViAAEN2aUe-380" value="RUA 4" style="text;strokeColor=none;fillColor=none;html=1;fontSize=12;fontStyle=1;verticalAlign=middle;align=center;rounded=0;" vertex="1" parent="1">
          <mxGeometry x="-1510.9099999999999" y="1390" width="25" height="10" as="geometry" />
        </mxCell>
        <mxCell id="ZsXU7rFgu9ViAAEN2aUe-381" value="RUA 5" style="text;strokeColor=none;fillColor=none;html=1;fontSize=12;fontStyle=1;verticalAlign=middle;align=center;rounded=0;" vertex="1" parent="1">
          <mxGeometry x="-1307.37" y="1388" width="25" height="10" as="geometry" />
        </mxCell>
        <mxCell id="ZsXU7rFgu9ViAAEN2aUe-385" value="RUA 6" style="text;strokeColor=none;fillColor=none;html=1;fontSize=12;fontStyle=1;verticalAlign=middle;align=center;rounded=0;" vertex="1" parent="1">
          <mxGeometry x="-1087.37" y="1388" width="25" height="8" as="geometry" />
        </mxCell>
        <mxCell id="ZsXU7rFgu9ViAAEN2aUe-386" value="RUA 7" style="text;strokeColor=none;fillColor=none;html=1;fontSize=12;fontStyle=1;verticalAlign=middle;align=center;rounded=0;" vertex="1" parent="1">
          <mxGeometry x="-864.1999999999998" y="1390" width="25" height="10" as="geometry" />
        </mxCell>
        <mxCell id="ZsXU7rFgu9ViAAEN2aUe-387" value="RUA 8" style="text;strokeColor=none;fillColor=none;html=1;fontSize=12;fontStyle=1;verticalAlign=middle;align=center;rounded=0;" vertex="1" parent="1">
          <mxGeometry x="-641.6599999999999" y="1388" width="25" height="10" as="geometry" />
        </mxCell>
        <mxCell id="ZsXU7rFgu9ViAAEN2aUe-388" value="" style="sketch=0;aspect=fixed;pointerEvents=1;shadow=0;dashed=0;html=1;strokeColor=#4C0099;labelPosition=center;verticalLabelPosition=bottom;verticalAlign=top;align=center;fillColor=#4C0099;shape=mxgraph.mscae.enterprise.wireless_connection;fontColor=#ffffff;fillStyle=hatch;rotation=90;rounded=0;" vertex="1" parent="1">
          <mxGeometry x="-1417.78" y="862" width="42" height="50" as="geometry" />
        </mxCell>
        <mxCell id="ZsXU7rFgu9ViAAEN2aUe-389" value="" style="sketch=0;aspect=fixed;pointerEvents=1;shadow=0;dashed=0;html=1;strokeColor=#4C0099;labelPosition=center;verticalLabelPosition=bottom;verticalAlign=top;align=center;fillColor=#4C0099;shape=mxgraph.mscae.enterprise.wireless_connection;fontColor=#ffffff;fillStyle=hatch;rotation=90;rounded=0;" vertex="1" parent="1">
          <mxGeometry x="-984.4199999999998" y="860" width="42" height="50" as="geometry" />
        </mxCell>
        <mxCell id="ZsXU7rFgu9ViAAEN2aUe-390" value="" style="sketch=0;aspect=fixed;pointerEvents=1;shadow=0;dashed=0;html=1;strokeColor=#4C0099;labelPosition=center;verticalLabelPosition=bottom;verticalAlign=top;align=center;fillColor=#4C0099;shape=mxgraph.mscae.enterprise.wireless_connection;fontColor=#ffffff;fillStyle=hatch;rotation=90;rounded=0;" vertex="1" parent="1">
          <mxGeometry x="-559.3199999999999" y="860" width="42" height="50" as="geometry" />
        </mxCell>
        <mxCell id="ZsXU7rFgu9ViAAEN2aUe-391" value="" style="sketch=0;aspect=fixed;pointerEvents=1;shadow=0;dashed=0;html=1;strokeColor=#4C0099;labelPosition=center;verticalLabelPosition=bottom;verticalAlign=top;align=center;fillColor=#4C0099;shape=mxgraph.mscae.enterprise.wireless_connection;fontColor=#ffffff;fillStyle=hatch;rotation=-90;rounded=0;" vertex="1" parent="1">
          <mxGeometry x="-2063.96" y="1260" width="42" height="50" as="geometry" />
        </mxCell>
        <mxCell id="ZsXU7rFgu9ViAAEN2aUe-392" value="" style="sketch=0;aspect=fixed;pointerEvents=1;shadow=0;dashed=0;html=1;strokeColor=#4C0099;labelPosition=center;verticalLabelPosition=bottom;verticalAlign=top;align=center;fillColor=#4C0099;shape=mxgraph.mscae.enterprise.wireless_connection;fontColor=#ffffff;fillStyle=hatch;rotation=-90;rounded=0;" vertex="1" parent="1">
          <mxGeometry x="-1627.9099999999999" y="1260" width="42" height="50" as="geometry" />
        </mxCell>
        <mxCell id="ZsXU7rFgu9ViAAEN2aUe-393" value="" style="sketch=0;aspect=fixed;pointerEvents=1;shadow=0;dashed=0;html=1;strokeColor=#4C0099;labelPosition=center;verticalLabelPosition=bottom;verticalAlign=top;align=center;fillColor=#4C0099;shape=mxgraph.mscae.enterprise.wireless_connection;fontColor=#ffffff;fillStyle=hatch;rotation=-90;rounded=0;" vertex="1" parent="1">
          <mxGeometry x="-1204.3699999999997" y="1260" width="42" height="50" as="geometry" />
        </mxCell>
        <mxCell id="ZsXU7rFgu9ViAAEN2aUe-394" value="" style="sketch=0;aspect=fixed;pointerEvents=1;shadow=0;dashed=0;html=1;strokeColor=#4C0099;labelPosition=center;verticalLabelPosition=bottom;verticalAlign=top;align=center;fillColor=#4C0099;shape=mxgraph.mscae.enterprise.wireless_connection;fontColor=#ffffff;fillStyle=hatch;rotation=-90;rounded=0;" vertex="1" parent="1">
          <mxGeometry x="-768.3199999999997" y="1260" width="42" height="50" as="geometry" />
        </mxCell>
        <mxCell id="ZsXU7rFgu9ViAAEN2aUe-395" value="" style="sketch=0;html=1;aspect=fixed;strokeColor=#4C0099;shadow=0;fillColor=#dae8fc;verticalAlign=top;labelPosition=center;verticalLabelPosition=bottom;shape=mxgraph.gcp2.phone_android;gradientColor=#4C0099;rounded=0;" vertex="1" parent="1">
          <mxGeometry x="-540.9199999999998" y="1130" width="33.6" height="60" as="geometry" />
        </mxCell>
        <mxCell id="ZsXU7rFgu9ViAAEN2aUe-396" value="" style="sketch=0;html=1;aspect=fixed;strokeColor=#4C0099;shadow=0;fillColor=#dae8fc;verticalAlign=top;labelPosition=center;verticalLabelPosition=bottom;shape=mxgraph.gcp2.phone_android;gradientColor=#4C0099;rounded=0;" vertex="1" parent="1">
          <mxGeometry x="-968.78" y="1090" width="33.6" height="60" as="geometry" />
        </mxCell>
        <mxCell id="ZsXU7rFgu9ViAAEN2aUe-397" value="" style="sketch=0;html=1;aspect=fixed;strokeColor=#4C0099;shadow=0;fillColor=#dae8fc;verticalAlign=top;labelPosition=center;verticalLabelPosition=bottom;shape=mxgraph.gcp2.phone_android;gradientColor=#4C0099;rounded=0;" vertex="1" parent="1">
          <mxGeometry x="-1188.78" y="990" width="33.6" height="60" as="geometry" />
        </mxCell>
        <mxCell id="ZsXU7rFgu9ViAAEN2aUe-398" value="" style="sketch=0;html=1;aspect=fixed;strokeColor=#4C0099;shadow=0;fillColor=#dae8fc;verticalAlign=top;labelPosition=center;verticalLabelPosition=bottom;shape=mxgraph.gcp2.phone_android;gradientColor=#4C0099;rounded=0;" vertex="1" parent="1">
          <mxGeometry x="-1623.7099999999998" y="890" width="33.6" height="60" as="geometry" />
        </mxCell>
        <mxCell id="ZsXU7rFgu9ViAAEN2aUe-399" value="" style="sketch=0;html=1;aspect=fixed;strokeColor=#4C0099;shadow=0;fillColor=#dae8fc;verticalAlign=top;labelPosition=center;verticalLabelPosition=bottom;shape=mxgraph.gcp2.phone_android;gradientColor=#4C0099;rounded=0;" vertex="1" parent="1">
          <mxGeometry x="-1403.5799999999997" y="1140" width="33.6" height="60" as="geometry" />
        </mxCell>
        <mxCell id="ZsXU7rFgu9ViAAEN2aUe-400" value="" style="sketch=0;html=1;aspect=fixed;strokeColor=#4C0099;shadow=0;fillColor=#dae8fc;verticalAlign=top;labelPosition=center;verticalLabelPosition=bottom;shape=mxgraph.gcp2.phone_android;gradientColor=#4C0099;rounded=0;" vertex="1" parent="1">
          <mxGeometry x="-1835.8799999999997" y="1059" width="33.6" height="60" as="geometry" />
        </mxCell>
        <mxCell id="ZsXU7rFgu9ViAAEN2aUe-401" value="" style="sketch=0;html=1;aspect=fixed;strokeColor=#4C0099;shadow=0;fillColor=#dae8fc;verticalAlign=top;labelPosition=center;verticalLabelPosition=bottom;shape=mxgraph.gcp2.phone_android;gradientColor=#4C0099;rounded=0;" vertex="1" parent="1">
          <mxGeometry x="-2063.96" y="860" width="33.6" height="60" as="geometry" />
        </mxCell>
        <mxCell id="ZsXU7rFgu9ViAAEN2aUe-402" value="AP-08" style="text;strokeColor=none;fillColor=none;html=1;fontSize=12;fontStyle=1;verticalAlign=middle;align=center;rounded=0;" vertex="1" parent="1">
          <mxGeometry x="-1836.37" y="780" width="25" height="10" as="geometry" />
        </mxCell>
        <mxCell id="ZsXU7rFgu9ViAAEN2aUe-405" value="AP-07" style="text;strokeColor=none;fillColor=none;html=1;fontSize=12;fontStyle=1;verticalAlign=middle;align=center;rounded=0;" vertex="1" parent="1">
          <mxGeometry x="-2056.6600000000003" y="1388" width="25" height="10" as="geometry" />
        </mxCell>
        <mxCell id="ZsXU7rFgu9ViAAEN2aUe-406" value="AP-09" style="text;strokeColor=none;fillColor=none;html=1;fontSize=12;fontStyle=1;verticalAlign=middle;align=center;rounded=0;" vertex="1" parent="1">
          <mxGeometry x="-1621.4099999999999" y="1388" width="25" height="10" as="geometry" />
        </mxCell>
        <mxCell id="ZsXU7rFgu9ViAAEN2aUe-408" value="AP-11" style="text;strokeColor=none;fillColor=none;html=1;fontSize=12;fontStyle=1;verticalAlign=middle;align=center;rounded=0;" vertex="1" parent="1">
          <mxGeometry x="-1195.87" y="1384" width="25" height="10" as="geometry" />
        </mxCell>
        <mxCell id="ZsXU7rFgu9ViAAEN2aUe-409" value="AP-13" style="text;strokeColor=none;fillColor=none;html=1;fontSize=12;fontStyle=1;verticalAlign=middle;align=center;rounded=0;" vertex="1" parent="1">
          <mxGeometry x="-759.6199999999999" y="1385" width="25" height="10" as="geometry" />
        </mxCell>
        <mxCell id="ZsXU7rFgu9ViAAEN2aUe-410" value="AP-10" style="text;strokeColor=none;fillColor=none;html=1;fontSize=12;fontStyle=1;verticalAlign=middle;align=center;rounded=0;" vertex="1" parent="1">
          <mxGeometry x="-1408.4599999999998" y="780" width="25" height="10" as="geometry" />
        </mxCell>
        <mxCell id="ZsXU7rFgu9ViAAEN2aUe-411" value="AP-12" style="text;strokeColor=none;fillColor=none;html=1;fontSize=12;fontStyle=1;verticalAlign=middle;align=center;rounded=0;" vertex="1" parent="1">
          <mxGeometry x="-976.78" y="780" width="25" height="10" as="geometry" />
        </mxCell>
        <mxCell id="ZsXU7rFgu9ViAAEN2aUe-412" value="AP-14&amp;nbsp;" style="text;strokeColor=none;fillColor=none;html=1;fontSize=12;fontStyle=1;verticalAlign=middle;align=center;rounded=0;" vertex="1" parent="1">
          <mxGeometry x="-550.8199999999999" y="780" width="25" height="10" as="geometry" />
        </mxCell>
        <mxCell id="ZsXU7rFgu9ViAAEN2aUe-428" value="" style="html=1;shape=mxgraph.basic.isocube;isoAngle=15;rounded=0;" vertex="1" parent="1">
          <mxGeometry x="-2188.69" y="870" width="60" height="60" as="geometry" />
        </mxCell>
        <mxCell id="ZsXU7rFgu9ViAAEN2aUe-429" value="" style="html=1;shape=mxgraph.basic.isocube;isoAngle=15;rounded=0;" vertex="1" parent="1">
          <mxGeometry x="-2184.46" y="1010" width="60" height="60" as="geometry" />
        </mxCell>
        <mxCell id="ZsXU7rFgu9ViAAEN2aUe-430" value="" style="html=1;shape=mxgraph.basic.isocube;isoAngle=15;rounded=0;" vertex="1" parent="1">
          <mxGeometry x="-2188.19" y="1170" width="60" height="60" as="geometry" />
        </mxCell>
        <mxCell id="ZsXU7rFgu9ViAAEN2aUe-431" value="" style="html=1;shape=mxgraph.basic.isocube;isoAngle=15;rounded=0;" vertex="1" parent="1">
          <mxGeometry x="-1958.3899999999999" y="870" width="60" height="60" as="geometry" />
        </mxCell>
        <mxCell id="ZsXU7rFgu9ViAAEN2aUe-432" value="" style="html=1;shape=mxgraph.basic.isocube;isoAngle=15;rounded=0;" vertex="1" parent="1">
          <mxGeometry x="-1954.1599999999999" y="1010" width="60" height="60" as="geometry" />
        </mxCell>
        <mxCell id="ZsXU7rFgu9ViAAEN2aUe-433" value="" style="html=1;shape=mxgraph.basic.isocube;isoAngle=15;rounded=0;" vertex="1" parent="1">
          <mxGeometry x="-1957.8899999999999" y="1170" width="60" height="60" as="geometry" />
        </mxCell>
        <mxCell id="ZsXU7rFgu9ViAAEN2aUe-434" value="" style="html=1;shape=mxgraph.basic.isocube;isoAngle=15;rounded=0;" vertex="1" parent="1">
          <mxGeometry x="-1748.3999999999999" y="870" width="60" height="60" as="geometry" />
        </mxCell>
        <mxCell id="ZsXU7rFgu9ViAAEN2aUe-435" value="" style="html=1;shape=mxgraph.basic.isocube;isoAngle=15;rounded=0;" vertex="1" parent="1">
          <mxGeometry x="-1744.1699999999998" y="1010" width="60" height="60" as="geometry" />
        </mxCell>
        <mxCell id="ZsXU7rFgu9ViAAEN2aUe-436" value="" style="html=1;shape=mxgraph.basic.isocube;isoAngle=15;rounded=0;" vertex="1" parent="1">
          <mxGeometry x="-1747.8999999999999" y="1170" width="60" height="60" as="geometry" />
        </mxCell>
        <mxCell id="ZsXU7rFgu9ViAAEN2aUe-437" value="" style="html=1;shape=mxgraph.basic.isocube;isoAngle=15;rounded=0;" vertex="1" parent="1">
          <mxGeometry x="-1530.5199999999998" y="870" width="60" height="60" as="geometry" />
        </mxCell>
        <mxCell id="ZsXU7rFgu9ViAAEN2aUe-438" value="" style="html=1;shape=mxgraph.basic.isocube;isoAngle=15;rounded=0;" vertex="1" parent="1">
          <mxGeometry x="-1526.2899999999997" y="1010" width="60" height="60" as="geometry" />
        </mxCell>
        <mxCell id="ZsXU7rFgu9ViAAEN2aUe-439" value="" style="html=1;shape=mxgraph.basic.isocube;isoAngle=15;rounded=0;" vertex="1" parent="1">
          <mxGeometry x="-1530.0199999999998" y="1170" width="60" height="60" as="geometry" />
        </mxCell>
        <mxCell id="ZsXU7rFgu9ViAAEN2aUe-440" value="" style="html=1;shape=mxgraph.basic.isocube;isoAngle=15;rounded=0;" vertex="1" parent="1">
          <mxGeometry x="-1331.01" y="870" width="60" height="60" as="geometry" />
        </mxCell>
        <mxCell id="ZsXU7rFgu9ViAAEN2aUe-441" value="" style="html=1;shape=mxgraph.basic.isocube;isoAngle=15;rounded=0;" vertex="1" parent="1">
          <mxGeometry x="-1326.78" y="1010" width="60" height="60" as="geometry" />
        </mxCell>
        <mxCell id="ZsXU7rFgu9ViAAEN2aUe-442" value="" style="html=1;shape=mxgraph.basic.isocube;isoAngle=15;rounded=0;" vertex="1" parent="1">
          <mxGeometry x="-1330.51" y="1170" width="60" height="60" as="geometry" />
        </mxCell>
        <mxCell id="ZsXU7rFgu9ViAAEN2aUe-443" value="" style="html=1;shape=mxgraph.basic.isocube;isoAngle=15;rounded=0;" vertex="1" parent="1">
          <mxGeometry x="-1106.9799999999998" y="870" width="60" height="60" as="geometry" />
        </mxCell>
        <mxCell id="ZsXU7rFgu9ViAAEN2aUe-444" value="" style="html=1;shape=mxgraph.basic.isocube;isoAngle=15;rounded=0;" vertex="1" parent="1">
          <mxGeometry x="-1102.7499999999998" y="1010" width="60" height="60" as="geometry" />
        </mxCell>
        <mxCell id="ZsXU7rFgu9ViAAEN2aUe-445" value="" style="html=1;shape=mxgraph.basic.isocube;isoAngle=15;rounded=0;" vertex="1" parent="1">
          <mxGeometry x="-1106.4799999999998" y="1170" width="60" height="60" as="geometry" />
        </mxCell>
        <mxCell id="ZsXU7rFgu9ViAAEN2aUe-446" value="" style="html=1;shape=mxgraph.basic.isocube;isoAngle=15;rounded=0;" vertex="1" parent="1">
          <mxGeometry x="-887.8999999999999" y="870" width="60" height="60" as="geometry" />
        </mxCell>
        <mxCell id="ZsXU7rFgu9ViAAEN2aUe-447" value="" style="html=1;shape=mxgraph.basic.isocube;isoAngle=15;rounded=0;" vertex="1" parent="1">
          <mxGeometry x="-883.6699999999998" y="1010" width="60" height="60" as="geometry" />
        </mxCell>
        <mxCell id="ZsXU7rFgu9ViAAEN2aUe-448" value="" style="html=1;shape=mxgraph.basic.isocube;isoAngle=15;rounded=0;" vertex="1" parent="1">
          <mxGeometry x="-887.3999999999999" y="1170" width="60" height="60" as="geometry" />
        </mxCell>
        <mxCell id="ZsXU7rFgu9ViAAEN2aUe-449" value="" style="html=1;shape=mxgraph.basic.isocube;isoAngle=15;rounded=0;" vertex="1" parent="1">
          <mxGeometry x="-670.9299999999998" y="880" width="60" height="60" as="geometry" />
        </mxCell>
        <mxCell id="ZsXU7rFgu9ViAAEN2aUe-450" value="" style="html=1;shape=mxgraph.basic.isocube;isoAngle=15;rounded=0;" vertex="1" parent="1">
          <mxGeometry x="-666.6999999999998" y="1020" width="60" height="60" as="geometry" />
        </mxCell>
        <mxCell id="ZsXU7rFgu9ViAAEN2aUe-451" value="" style="html=1;shape=mxgraph.basic.isocube;isoAngle=15;rounded=0;" vertex="1" parent="1">
          <mxGeometry x="-670.4299999999998" y="1180" width="60" height="60" as="geometry" />
        </mxCell>
        <mxCell id="ZsXU7rFgu9ViAAEN2aUe-452" value="" style="html=1;shape=mxgraph.basic.isocube;isoAngle=15;rounded=0;" vertex="1" parent="1">
          <mxGeometry x="-474.00999999999976" y="880" width="60" height="60" as="geometry" />
        </mxCell>
        <mxCell id="ZsXU7rFgu9ViAAEN2aUe-453" value="" style="html=1;shape=mxgraph.basic.isocube;isoAngle=15;rounded=0;" vertex="1" parent="1">
          <mxGeometry x="-469.77999999999975" y="1020" width="60" height="60" as="geometry" />
        </mxCell>
        <mxCell id="ZsXU7rFgu9ViAAEN2aUe-454" value="" style="html=1;shape=mxgraph.basic.isocube;isoAngle=15;rounded=0;" vertex="1" parent="1">
          <mxGeometry x="-473.50999999999976" y="1180" width="60" height="60" as="geometry" />
        </mxCell>
        <mxCell id="ZsXU7rFgu9ViAAEN2aUe-456" value="" style="endArrow=none;html=1;rounded=0;strokeWidth=3;strokeColor=#006EAF;fillColor=#1ba1e2;edgeStyle=orthogonalEdgeStyle;" edge="1" parent="1" source="ZsXU7rFgu9ViAAEN2aUe-36" target="ZsXU7rFgu9ViAAEN2aUe-357">
          <mxGeometry width="50" height="50" relative="1" as="geometry">
            <mxPoint x="-2151.3700000000003" y="2716" as="sourcePoint" />
            <mxPoint x="-2116.3700000000003" y="1580" as="targetPoint" />
            <Array as="points">
              <mxPoint x="-1204.78" y="1580" />
              <mxPoint x="-1998.7800000000002" y="1580" />
              <mxPoint x="-1998.7800000000002" y="1355" />
            </Array>
          </mxGeometry>
        </mxCell>
        <mxCell id="ZsXU7rFgu9ViAAEN2aUe-458" value="" style="endArrow=none;html=1;rounded=0;strokeWidth=3;strokeColor=#006EAF;fillColor=#1ba1e2;edgeStyle=orthogonalEdgeStyle;" edge="1" parent="1" source="ZsXU7rFgu9ViAAEN2aUe-36" target="ZsXU7rFgu9ViAAEN2aUe-362">
          <mxGeometry width="50" height="50" relative="1" as="geometry">
            <mxPoint x="-1230.36" y="1975" as="sourcePoint" />
            <mxPoint x="-2030.3600000000001" y="1680" as="targetPoint" />
            <Array as="points">
              <mxPoint x="-1558.78" y="1680" />
              <mxPoint x="-1558.78" y="1356" />
            </Array>
          </mxGeometry>
        </mxCell>
        <mxCell id="ZsXU7rFgu9ViAAEN2aUe-459" value="" style="endArrow=none;html=1;rounded=0;strokeWidth=3;strokeColor=#006EAF;fillColor=#1ba1e2;edgeStyle=orthogonalEdgeStyle;" edge="1" parent="1" source="ZsXU7rFgu9ViAAEN2aUe-36" target="ZsXU7rFgu9ViAAEN2aUe-370">
          <mxGeometry width="50" height="50" relative="1" as="geometry">
            <mxPoint x="40.0799999999999" y="1905" as="sourcePoint" />
            <mxPoint x="-759.9200000000001" y="1610" as="targetPoint" />
            <Array as="points">
              <mxPoint x="-1148.78" y="1670" />
              <mxPoint x="-1148.78" y="1620" />
              <mxPoint x="-798.78" y="1620" />
              <mxPoint x="-798.78" y="1354" />
            </Array>
          </mxGeometry>
        </mxCell>
        <mxCell id="ZsXU7rFgu9ViAAEN2aUe-460" value="" style="endArrow=none;html=1;rounded=0;strokeWidth=3;strokeColor=#006EAF;fillColor=#1ba1e2;edgeStyle=orthogonalEdgeStyle;exitX=1;exitY=0;exitDx=0;exitDy=0;exitPerimeter=0;" edge="1" parent="1" source="ZsXU7rFgu9ViAAEN2aUe-36" target="ZsXU7rFgu9ViAAEN2aUe-367">
          <mxGeometry width="50" height="50" relative="1" as="geometry">
            <mxPoint x="-370.8700000000001" y="1765" as="sourcePoint" />
            <mxPoint x="-1170.8700000000001" y="1470" as="targetPoint" />
            <Array as="points">
              <mxPoint x="-1165" y="1650" />
              <mxPoint x="-1165" y="1470" />
              <mxPoint x="-1229" y="1470" />
              <mxPoint x="-1229" y="1353" />
            </Array>
          </mxGeometry>
        </mxCell>
        <mxCell id="ZsXU7rFgu9ViAAEN2aUe-461" value="" style="endArrow=none;html=1;rounded=0;strokeWidth=3;strokeColor=#006EAF;fillColor=#1ba1e2;edgeStyle=orthogonalEdgeStyle;" edge="1" parent="1" source="ZsXU7rFgu9ViAAEN2aUe-77" target="ZsXU7rFgu9ViAAEN2aUe-356">
          <mxGeometry width="50" height="50" relative="1" as="geometry">
            <mxPoint x="-1658.78" y="1650" as="sourcePoint" />
            <mxPoint x="-2458.78" y="1355" as="targetPoint" />
            <Array as="points">
              <mxPoint x="-1696" y="530" />
              <mxPoint x="-1696" y="700" />
              <mxPoint x="-1776" y="700" />
              <mxPoint x="-1776" y="821" />
            </Array>
          </mxGeometry>
        </mxCell>
        <mxCell id="ZsXU7rFgu9ViAAEN2aUe-462" value="" style="endArrow=none;html=1;rounded=0;strokeWidth=3;strokeColor=#006EAF;fillColor=#1ba1e2;edgeStyle=orthogonalEdgeStyle;entryX=0;entryY=0.5;entryDx=0;entryDy=0;entryPerimeter=0;" edge="1" parent="1" source="ZsXU7rFgu9ViAAEN2aUe-77" target="ZsXU7rFgu9ViAAEN2aUe-372">
          <mxGeometry width="50" height="50" relative="1" as="geometry">
            <mxPoint x="-1012.28" y="571" as="sourcePoint" />
            <mxPoint x="-1579.28" y="842" as="targetPoint" />
            <Array as="points">
              <mxPoint x="-1438.78" y="540" />
              <mxPoint x="-1438.78" y="821" />
            </Array>
          </mxGeometry>
        </mxCell>
        <mxCell id="ZsXU7rFgu9ViAAEN2aUe-463" value="" style="endArrow=none;html=1;rounded=0;strokeWidth=3;strokeColor=#006EAF;fillColor=#1ba1e2;edgeStyle=orthogonalEdgeStyle;" edge="1" parent="1" source="ZsXU7rFgu9ViAAEN2aUe-77" target="ZsXU7rFgu9ViAAEN2aUe-366">
          <mxGeometry width="50" height="50" relative="1" as="geometry">
            <mxPoint x="-1013.77" y="608.94" as="sourcePoint" />
            <mxPoint x="-1229.7699999999998" y="889.94" as="targetPoint" />
            <Array as="points">
              <mxPoint x="-1118.78" y="534" />
              <mxPoint x="-1118.78" y="700" />
              <mxPoint x="-1008.78" y="700" />
              <mxPoint x="-1008.78" y="819" />
            </Array>
          </mxGeometry>
        </mxCell>
        <mxCell id="ZsXU7rFgu9ViAAEN2aUe-464" value="" style="endArrow=none;html=1;rounded=0;strokeWidth=3;strokeColor=#006EAF;fillColor=#1ba1e2;edgeStyle=orthogonalEdgeStyle;entryX=0;entryY=0.5;entryDx=0;entryDy=0;entryPerimeter=0;" edge="1" parent="1" source="ZsXU7rFgu9ViAAEN2aUe-77" target="ZsXU7rFgu9ViAAEN2aUe-374">
          <mxGeometry width="50" height="50" relative="1" as="geometry">
            <mxPoint x="-746.8199999999999" y="540" as="sourcePoint" />
            <mxPoint x="-588.8199999999999" y="825" as="targetPoint" />
            <Array as="points">
              <mxPoint x="-578.78" y="550" />
              <mxPoint x="-578.78" y="825" />
              <mxPoint x="-576.78" y="825" />
            </Array>
          </mxGeometry>
        </mxCell>
        <mxCell id="ZsXU7rFgu9ViAAEN2aUe-480" value="" style="shape=mxgraph.cisco.servers.fileserver;sketch=0;html=1;pointerEvents=1;dashed=0;fillColor=#4C0099;strokeColor=#ffffff;strokeWidth=2;verticalLabelPosition=bottom;verticalAlign=top;align=center;outlineConnect=0;rounded=0;" vertex="1" parent="1">
          <mxGeometry x="-1057.23" y="-779.5" width="43" height="62" as="geometry" />
        </mxCell>
        <mxCell id="ZsXU7rFgu9ViAAEN2aUe-481" value="" style="shape=mxgraph.cisco.servers.fileserver;sketch=0;html=1;pointerEvents=1;dashed=0;fillColor=#4C0099;strokeColor=#ffffff;strokeWidth=2;verticalLabelPosition=bottom;verticalAlign=top;align=center;outlineConnect=0;rounded=0;" vertex="1" parent="1">
          <mxGeometry x="-1139.05" y="-778.5" width="43" height="62" as="geometry" />
        </mxCell>
        <mxCell id="ZsXU7rFgu9ViAAEN2aUe-482" value="" style="shape=mxgraph.cisco.servers.fileserver;sketch=0;html=1;pointerEvents=1;dashed=0;fillColor=#4C0099;strokeColor=#ffffff;strokeWidth=2;verticalLabelPosition=bottom;verticalAlign=top;align=center;outlineConnect=0;rounded=0;" vertex="1" parent="1">
          <mxGeometry x="-1057.2300000000002" y="-696.5" width="43" height="62" as="geometry" />
        </mxCell>
        <mxCell id="ZsXU7rFgu9ViAAEN2aUe-483" value="" style="shape=mxgraph.cisco.servers.fileserver;sketch=0;html=1;pointerEvents=1;dashed=0;fillColor=#4C0099;strokeColor=#ffffff;strokeWidth=2;verticalLabelPosition=bottom;verticalAlign=top;align=center;outlineConnect=0;rounded=0;" vertex="1" parent="1">
          <mxGeometry x="-1139.05" y="-698" width="43" height="62" as="geometry" />
        </mxCell>
        <mxCell id="ZsXU7rFgu9ViAAEN2aUe-484" value="" style="shape=mxgraph.cisco.servers.fileserver;sketch=0;html=1;pointerEvents=1;dashed=0;fillColor=#4C0099;strokeColor=#ffffff;strokeWidth=2;verticalLabelPosition=bottom;verticalAlign=top;align=center;outlineConnect=0;rounded=0;" vertex="1" parent="1">
          <mxGeometry x="-870.56" y="-778.5" width="43" height="62" as="geometry" />
        </mxCell>
        <mxCell id="ZsXU7rFgu9ViAAEN2aUe-485" value="VSRV-UNIF" style="text;strokeColor=none;fillColor=none;html=1;fontSize=12;fontStyle=1;verticalAlign=middle;align=center;movable=1;resizable=1;rotatable=1;deletable=1;editable=1;locked=0;connectable=1;rounded=0;" vertex="1" parent="1">
          <mxGeometry x="-1048.23" y="-712.5" width="25" height="10" as="geometry" />
        </mxCell>
        <mxCell id="ZsXU7rFgu9ViAAEN2aUe-486" value="VSRV-FS01" style="text;strokeColor=none;fillColor=none;html=1;fontSize=12;fontStyle=1;verticalAlign=middle;align=center;movable=1;resizable=1;rotatable=1;deletable=1;editable=1;locked=0;connectable=1;rounded=0;" vertex="1" parent="1">
          <mxGeometry x="-1047.29" y="-632.5" width="25" height="10" as="geometry" />
        </mxCell>
        <mxCell id="ZsXU7rFgu9ViAAEN2aUe-487" value="VSRV-PRNT" style="text;strokeColor=none;fillColor=none;html=1;fontSize=12;fontStyle=1;verticalAlign=middle;align=center;movable=1;resizable=1;rotatable=1;deletable=1;editable=1;locked=0;connectable=1;rounded=0;" vertex="1" parent="1">
          <mxGeometry x="-1133.11" y="-632.5" width="25" height="10" as="geometry" />
        </mxCell>
        <mxCell id="ZsXU7rFgu9ViAAEN2aUe-488" value="VSRV-DEV" style="text;strokeColor=none;fillColor=none;html=1;fontSize=12;fontStyle=1;verticalAlign=middle;align=center;movable=1;resizable=1;rotatable=1;deletable=1;editable=1;locked=0;connectable=1;rounded=0;" vertex="1" parent="1">
          <mxGeometry x="-864.8" y="-711" width="25" height="10" as="geometry" />
        </mxCell>
        <mxCell id="ZsXU7rFgu9ViAAEN2aUe-490" value="" style="shape=mxgraph.cisco.servers.fileserver;sketch=0;html=1;pointerEvents=1;dashed=0;fillColor=#4C0099;strokeColor=#ffffff;strokeWidth=2;verticalLabelPosition=bottom;verticalAlign=top;align=center;outlineConnect=0;rounded=0;" vertex="1" parent="1">
          <mxGeometry x="-946.7" y="-776" width="43" height="62" as="geometry" />
        </mxCell>
        <mxCell id="ZsXU7rFgu9ViAAEN2aUe-491" value="VSRV-AD02" style="text;strokeColor=none;fillColor=none;html=1;fontSize=12;fontStyle=1;verticalAlign=middle;align=center;movable=1;resizable=1;rotatable=1;deletable=1;editable=1;locked=0;connectable=1;rounded=0;" vertex="1" parent="1">
          <mxGeometry x="-936.7" y="-711" width="25" height="10" as="geometry" />
        </mxCell>
        <mxCell id="ZsXU7rFgu9ViAAEN2aUe-492" value="SRV-HOST02" style="text;strokeColor=none;fillColor=none;html=1;fontSize=12;fontStyle=1;verticalAlign=middle;align=center;movable=1;resizable=1;rotatable=1;deletable=1;editable=1;locked=0;connectable=1;rounded=0;" vertex="1" parent="1">
          <mxGeometry x="-897.6099999999999" y="-824.5" width="25" height="31" as="geometry" />
        </mxCell>
        <mxCell id="ZsXU7rFgu9ViAAEN2aUe-494" value="" style="shape=mxgraph.cisco.servers.fileserver;sketch=0;html=1;pointerEvents=1;dashed=0;fillColor=#4C0099;strokeColor=#ffffff;strokeWidth=2;verticalLabelPosition=bottom;verticalAlign=top;align=center;outlineConnect=0;rounded=0;" vertex="1" parent="1">
          <mxGeometry x="-946.7000000000002" y="-691" width="43" height="62" as="geometry" />
        </mxCell>
        <mxCell id="ZsXU7rFgu9ViAAEN2aUe-495" value="VSRV-FS02" style="text;strokeColor=none;fillColor=none;html=1;fontSize=12;fontStyle=1;verticalAlign=middle;align=center;movable=1;resizable=1;rotatable=1;deletable=1;editable=1;locked=0;connectable=1;rounded=0;" vertex="1" parent="1">
          <mxGeometry x="-936.7599999999999" y="-627" width="25" height="10" as="geometry" />
        </mxCell>
        <mxCell id="ZsXU7rFgu9ViAAEN2aUe-496" value="" style="shape=mxgraph.cisco.servers.fileserver;sketch=0;html=1;pointerEvents=1;dashed=0;fillColor=#4C0099;strokeColor=#ffffff;strokeWidth=2;verticalLabelPosition=bottom;verticalAlign=top;align=center;outlineConnect=0;rounded=0;" vertex="1" parent="1">
          <mxGeometry x="-866.02" y="-692" width="43" height="62" as="geometry" />
        </mxCell>
        <mxCell id="ZsXU7rFgu9ViAAEN2aUe-497" value="VSRV-AADC" style="text;strokeColor=none;fillColor=none;html=1;fontSize=12;fontStyle=1;verticalAlign=middle;align=center;movable=1;resizable=1;rotatable=1;deletable=1;editable=1;locked=0;connectable=1;rounded=0;" vertex="1" parent="1">
          <mxGeometry x="-856.02" y="-627" width="25" height="10" as="geometry" />
        </mxCell>
        <mxCell id="ZsXU7rFgu9ViAAEN2aUe-499" value="" style="endArrow=none;html=1;rounded=0;strokeWidth=3;fillColor=#1ba1e2;strokeColor=#006EAF;edgeStyle=orthogonalEdgeStyle;entryX=0.145;entryY=0.855;entryDx=0;entryDy=0;entryPerimeter=0;" edge="1" parent="1" target="ZsXU7rFgu9ViAAEN2aUe-168">
          <mxGeometry width="50" height="50" relative="1" as="geometry">
            <mxPoint x="-794" y="-750" as="sourcePoint" />
            <mxPoint x="-156" y="-673" as="targetPoint" />
            <Array as="points">
              <mxPoint x="148" y="-750" />
              <mxPoint x="148" y="-924" />
            </Array>
          </mxGeometry>
        </mxCell>
        <mxCell id="ZsXU7rFgu9ViAAEN2aUe-500" value="" style="endArrow=none;html=1;rounded=0;strokeWidth=3;fillColor=#1ba1e2;strokeColor=#006EAF;edgeStyle=orthogonalEdgeStyle;exitX=0.855;exitY=0.855;exitDx=0;exitDy=0;exitPerimeter=0;" edge="1" parent="1" source="ZsXU7rFgu9ViAAEN2aUe-168">
          <mxGeometry width="50" height="50" relative="1" as="geometry">
            <mxPoint x="120" y="-1036" as="sourcePoint" />
            <mxPoint x="940" y="-580" as="targetPoint" />
            <Array as="points">
              <mxPoint x="940" y="-924" />
            </Array>
          </mxGeometry>
        </mxCell>
        <mxCell id="ZsXU7rFgu9ViAAEN2aUe-191" value="" style="verticalLabelPosition=bottom;html=1;verticalAlign=top;align=center;strokeColor=#FFFFFF;fillColor=#000000;shape=mxgraph.azure.git_repository;rounded=0;" vertex="1" parent="1">
          <mxGeometry x="-843.9000000000001" y="-776" width="38.12" height="38.12" as="geometry" />
        </mxCell>
        <mxCell id="ZsXU7rFgu9ViAAEN2aUe-501" value="" style="pointerEvents=1;shadow=0;dashed=0;html=1;strokeColor=#FFCB3D;fillColor=#000000;labelPosition=center;verticalLabelPosition=bottom;verticalAlign=top;align=center;outlineConnect=0;shape=mxgraph.veeam2.linux;fillStyle=auto;rounded=0;gradientColor=none;" vertex="1" parent="1">
          <mxGeometry x="816.0699999999999" y="-498.5" width="80" height="80" as="geometry" />
        </mxCell>
        <mxCell id="ZsXU7rFgu9ViAAEN2aUe-502" value="FRONTEND" style="text;strokeColor=none;fillColor=none;html=1;fontSize=12;fontStyle=1;verticalAlign=middle;align=center;rounded=0;" vertex="1" parent="1">
          <mxGeometry x="843.5699999999999" y="-542" width="25" height="10" as="geometry" />
        </mxCell>
        <mxCell id="ZsXU7rFgu9ViAAEN2aUe-503" value="" style="verticalLabelPosition=bottom;html=1;verticalAlign=top;align=center;shape=mxgraph.azure.azure_website;pointerEvents=1;rounded=0;fillColor=#5FA0EF;strokeColor=#FFFFFF;" vertex="1" parent="1">
          <mxGeometry x="796.0699999999999" y="-514" width="50" height="50" as="geometry" />
        </mxCell>
        <mxCell id="ZsXU7rFgu9ViAAEN2aUe-512" value="" style="image;aspect=fixed;html=1;points=[];align=center;fontSize=12;image=img/lib/azure2/general/Cost_Management.svg;rounded=0;" vertex="1" parent="1">
          <mxGeometry x="650" y="-155.5" width="67" height="60" as="geometry" />
        </mxCell>
        <mxCell id="ZsXU7rFgu9ViAAEN2aUe-514" value="" style="endArrow=none;html=1;rounded=0;strokeWidth=3;fillColor=#1ba1e2;strokeColor=#006EAF;movable=1;resizable=1;rotatable=1;deletable=1;editable=1;locked=0;connectable=1;edgeStyle=orthogonalEdgeStyle;" edge="1" parent="1" source="ZsXU7rFgu9ViAAEN2aUe-512">
          <mxGeometry width="50" height="50" relative="1" as="geometry">
            <mxPoint x="170" y="-160.03" as="sourcePoint" />
            <mxPoint x="940" y="-360" as="targetPoint" />
            <Array as="points">
              <mxPoint x="684" y="-170" />
              <mxPoint x="790" y="-170" />
              <mxPoint x="790" y="-360" />
            </Array>
          </mxGeometry>
        </mxCell>
        <mxCell id="ZsXU7rFgu9ViAAEN2aUe-515" value="AZURE COAST MANAGEMENT" style="text;strokeColor=none;fillColor=none;html=1;fontSize=12;fontStyle=1;verticalAlign=middle;align=center;rounded=0;" vertex="1" parent="1">
          <mxGeometry x="668" y="-87" width="25" height="10" as="geometry" />
        </mxCell>
        <mxCell id="ZsXU7rFgu9ViAAEN2aUe-516" value="" style="image;aspect=fixed;html=1;points=[];align=center;fontSize=12;image=img/lib/azure2/networking/Web_Application_Firewall_Policies_WAF.svg;rounded=0;" vertex="1" parent="1">
          <mxGeometry x="514" y="-504" width="41" height="41" as="geometry" />
        </mxCell>
        <mxCell id="ZsXU7rFgu9ViAAEN2aUe-517" value="" style="image;aspect=fixed;html=1;points=[];align=center;fontSize=12;image=img/lib/azure2/networking/Front_Doors.svg;rounded=0;" vertex="1" parent="1">
          <mxGeometry x="536" y="-595" width="68" height="60" as="geometry" />
        </mxCell>
        <mxCell id="ZsXU7rFgu9ViAAEN2aUe-524" value="" style="endArrow=none;html=1;rounded=0;strokeWidth=3;fillColor=#1ba1e2;strokeColor=#006EAF;movable=1;resizable=1;rotatable=1;deletable=1;editable=1;locked=0;connectable=1;edgeStyle=orthogonalEdgeStyle;" edge="1" parent="1" source="ZsXU7rFgu9ViAAEN2aUe-584">
          <mxGeometry width="50" height="50" relative="1" as="geometry">
            <mxPoint x="940" y="-173" as="sourcePoint" />
            <mxPoint x="940" y="-450" as="targetPoint" />
            <Array as="points" />
          </mxGeometry>
        </mxCell>
        <mxCell id="ZsXU7rFgu9ViAAEN2aUe-527" value="AZURE FRONT DOOR" style="text;strokeColor=none;fillColor=none;html=1;fontSize=12;fontStyle=1;verticalAlign=middle;align=center;rounded=0;" vertex="1" parent="1">
          <mxGeometry x="555.9999999999999" y="-530" width="25" height="10" as="geometry" />
        </mxCell>
        <mxCell id="ZsXU7rFgu9ViAAEN2aUe-534" value="" style="image;aspect=fixed;html=1;points=[];align=center;fontSize=12;image=img/lib/azure2/app_services/CDN_Profiles.svg;rounded=0;" vertex="1" parent="1">
          <mxGeometry x="564" y="-503" width="68" height="40" as="geometry" />
        </mxCell>
        <mxCell id="ZsXU7rFgu9ViAAEN2aUe-535" value="CDN" style="text;strokeColor=none;fillColor=none;html=1;fontSize=12;fontStyle=1;verticalAlign=middle;align=center;rounded=0;" vertex="1" parent="1">
          <mxGeometry x="589.9999999999999" y="-456.62" width="25" height="10" as="geometry" />
        </mxCell>
        <mxCell id="ZsXU7rFgu9ViAAEN2aUe-536" value="WAF" style="text;strokeColor=none;fillColor=none;html=1;fontSize=12;fontStyle=1;verticalAlign=middle;align=center;rounded=0;" vertex="1" parent="1">
          <mxGeometry x="525.9999999999999" y="-454.62" width="25" height="10" as="geometry" />
        </mxCell>
        <mxCell id="ZsXU7rFgu9ViAAEN2aUe-545" value="" style="endArrow=none;html=1;rounded=0;strokeWidth=3;fillColor=#1ba1e2;strokeColor=#006EAF;edgeStyle=orthogonalEdgeStyle;" edge="1" parent="1" source="ZsXU7rFgu9ViAAEN2aUe-501" target="ZsXU7rFgu9ViAAEN2aUe-174">
          <mxGeometry width="50" height="50" relative="1" as="geometry">
            <mxPoint x="1030" y="-490" as="sourcePoint" />
            <mxPoint x="990" y="-581" as="targetPoint" />
            <Array as="points">
              <mxPoint x="980" y="-450" />
              <mxPoint x="980" y="-580" />
            </Array>
          </mxGeometry>
        </mxCell>
        <mxCell id="ZsXU7rFgu9ViAAEN2aUe-546" value="" style="endArrow=none;html=1;rounded=0;strokeWidth=3;fillColor=#1ba1e2;strokeColor=#006EAF;edgeStyle=orthogonalEdgeStyle;" edge="1" parent="1" source="ZsXU7rFgu9ViAAEN2aUe-501" target="ZsXU7rFgu9ViAAEN2aUe-174">
          <mxGeometry width="50" height="50" relative="1" as="geometry">
            <mxPoint x="732.0699999999999" y="-450" as="sourcePoint" />
            <mxPoint x="732.0699999999999" y="-581" as="targetPoint" />
            <Array as="points">
              <mxPoint x="750" y="-450" />
              <mxPoint x="750" y="-581" />
            </Array>
          </mxGeometry>
        </mxCell>
        <mxCell id="ZsXU7rFgu9ViAAEN2aUe-547" value="" style="endArrow=none;html=1;rounded=0;strokeWidth=3;fillColor=#dae8fc;strokeColor=#006EAF;movable=1;resizable=1;rotatable=1;deletable=1;editable=1;locked=0;connectable=1;edgeStyle=orthogonalEdgeStyle;exitX=0.014;exitY=0.496;exitDx=0;exitDy=0;exitPerimeter=0;" edge="1" parent="1" source="ZsXU7rFgu9ViAAEN2aUe-585">
          <mxGeometry width="50" height="50" relative="1" as="geometry">
            <mxPoint x="1121" y="-507.25" as="sourcePoint" />
            <mxPoint x="980" y="-507" as="targetPoint" />
            <Array as="points" />
          </mxGeometry>
        </mxCell>
        <mxCell id="ZsXU7rFgu9ViAAEN2aUe-549" value="" style="endArrow=none;html=1;rounded=0;strokeWidth=3;fillColor=#dae8fc;strokeColor=#006EAF;movable=1;resizable=1;rotatable=1;deletable=1;editable=1;locked=0;connectable=1;edgeStyle=orthogonalEdgeStyle;entryX=1.004;entryY=0.5;entryDx=0;entryDy=0;entryPerimeter=0;" edge="1" parent="1" target="ZsXU7rFgu9ViAAEN2aUe-533">
          <mxGeometry width="50" height="50" relative="1" as="geometry">
            <mxPoint x="750" y="-516" as="sourcePoint" />
            <mxPoint x="263.28" y="-459.03" as="targetPoint" />
            <Array as="points">
              <mxPoint x="700" y="-516" />
              <mxPoint x="700" y="-516" />
            </Array>
          </mxGeometry>
        </mxCell>
        <mxCell id="ZsXU7rFgu9ViAAEN2aUe-551" value="" style="endArrow=none;html=1;rounded=0;strokeWidth=3;fillColor=#1ba1e2;strokeColor=#006EAF;movable=1;resizable=1;rotatable=1;deletable=1;editable=1;locked=0;connectable=1;edgeStyle=orthogonalEdgeStyle;exitX=1.005;exitY=0.761;exitDx=0;exitDy=0;exitPerimeter=0;entryX=0;entryY=0.58;entryDx=0;entryDy=0;entryPerimeter=0;" edge="1" parent="1" source="ZsXU7rFgu9ViAAEN2aUe-146" target="ZsXU7rFgu9ViAAEN2aUe-210">
          <mxGeometry width="50" height="50" relative="1" as="geometry">
            <mxPoint x="-794" y="-655" as="sourcePoint" />
            <mxPoint x="50" y="-665" as="targetPoint" />
            <Array as="points" />
          </mxGeometry>
        </mxCell>
        <mxCell id="ZsXU7rFgu9ViAAEN2aUe-550" value="Internet" style="ellipse;shape=cloud;whiteSpace=wrap;html=1;rounded=0;strokeColor=#4C0099;gradientColor=#7EA6E0;fillColor=#DAE8FC;" vertex="1" parent="1">
          <mxGeometry x="100" y="-606" width="96.75" height="64.5" as="geometry" />
        </mxCell>
        <mxCell id="ZsXU7rFgu9ViAAEN2aUe-553" value="" style="points=[[0.35,0,0],[0.98,0.51,0],[1,0.71,0],[0.67,1,0],[0,0.795,0],[0,0.65,0]];verticalLabelPosition=bottom;sketch=0;html=1;verticalAlign=top;aspect=fixed;align=center;pointerEvents=1;shape=mxgraph.cisco19.user;fillColor=#4C0099;strokeColor=none;rounded=0;" vertex="1" parent="1">
          <mxGeometry x="123.37" y="-454.62" width="50" height="50" as="geometry" />
        </mxCell>
        <mxCell id="ZsXU7rFgu9ViAAEN2aUe-554" value="" style="endArrow=none;html=1;rounded=0;strokeWidth=3;fillColor=#1ba1e2;strokeColor=#006EAF;movable=1;resizable=1;rotatable=1;deletable=1;editable=1;locked=0;connectable=1;edgeStyle=orthogonalEdgeStyle;entryX=0.504;entryY=0.964;entryDx=0;entryDy=0;entryPerimeter=0;exitX=0.875;exitY=0.5;exitDx=0;exitDy=0;exitPerimeter=0;" edge="1" parent="1" source="ZsXU7rFgu9ViAAEN2aUe-550">
          <mxGeometry width="50" height="50" relative="1" as="geometry">
            <mxPoint x="358" y="-595" as="sourcePoint" />
            <mxPoint x="447.7619999999997" y="-573.8219999999997" as="targetPoint" />
            <Array as="points">
              <mxPoint x="235" y="-574" />
            </Array>
          </mxGeometry>
        </mxCell>
        <mxCell id="ZsXU7rFgu9ViAAEN2aUe-555" value="" style="endArrow=none;html=1;rounded=0;strokeWidth=3;fillColor=#dae8fc;strokeColor=#006EAF;movable=1;resizable=1;rotatable=1;deletable=1;editable=1;locked=0;connectable=1;edgeStyle=orthogonalEdgeStyle;entryX=0.515;entryY=0.002;entryDx=0;entryDy=0;entryPerimeter=0;exitX=0.51;exitY=0.944;exitDx=0;exitDy=0;exitPerimeter=0;" edge="1" parent="1" source="ZsXU7rFgu9ViAAEN2aUe-550" target="ZsXU7rFgu9ViAAEN2aUe-553">
          <mxGeometry width="50" height="50" relative="1" as="geometry">
            <mxPoint x="161" y="-523" as="sourcePoint" />
            <mxPoint x="150" y="-460" as="targetPoint" />
            <Array as="points">
              <mxPoint x="149" y="-454" />
            </Array>
          </mxGeometry>
        </mxCell>
        <mxCell id="ZsXU7rFgu9ViAAEN2aUe-556" value="USER" style="text;strokeColor=none;fillColor=none;html=1;fontSize=12;fontStyle=1;verticalAlign=middle;align=center;rounded=0;" vertex="1" parent="1">
          <mxGeometry x="135.88" y="-400" width="25" height="10" as="geometry" />
        </mxCell>
        <mxCell id="ZsXU7rFgu9ViAAEN2aUe-558" value="" style="endArrow=none;html=1;rounded=0;strokeWidth=3;fillColor=#1ba1e2;strokeColor=#006EAF;edgeStyle=orthogonalEdgeStyle;entryX=0.16;entryY=0.55;entryDx=0;entryDy=0;entryPerimeter=0;" edge="1" parent="1" target="ZsXU7rFgu9ViAAEN2aUe-559">
          <mxGeometry width="50" height="50" relative="1" as="geometry">
            <mxPoint x="-1539" y="-946" as="sourcePoint" />
            <mxPoint x="-1359" y="-1290" as="targetPoint" />
            <Array as="points">
              <mxPoint x="-1539" y="-1241" />
            </Array>
          </mxGeometry>
        </mxCell>
        <mxCell id="ZsXU7rFgu9ViAAEN2aUe-559" value="Internet" style="ellipse;shape=cloud;whiteSpace=wrap;html=1;rounded=0;strokeColor=#4C0099;fillColor=#dae8fc;gradientColor=#7EA6E0;" vertex="1" parent="1">
          <mxGeometry x="-1492.9099999999999" y="-1276" width="96.75" height="64.5" as="geometry" />
        </mxCell>
        <mxCell id="ZsXU7rFgu9ViAAEN2aUe-565" value="" style="points=[[0.35,0,0],[0.98,0.51,0],[1,0.71,0],[0.67,1,0],[0,0.795,0],[0,0.65,0]];verticalLabelPosition=bottom;sketch=0;html=1;verticalAlign=top;aspect=fixed;align=center;pointerEvents=1;shape=mxgraph.cisco19.user;fillColor=#4C0099;strokeColor=none;rounded=0;" vertex="1" parent="1">
          <mxGeometry x="-1014.23" y="-1261.5" width="50" height="50" as="geometry" />
        </mxCell>
        <mxCell id="ZsXU7rFgu9ViAAEN2aUe-567" value="" style="sketch=0;outlineConnect=0;fontColor=#232F3E;gradientColor=none;fillColor=#4C0099;strokeColor=none;dashed=0;verticalLabelPosition=bottom;verticalAlign=top;align=center;html=1;fontSize=12;fontStyle=0;aspect=fixed;pointerEvents=1;shape=mxgraph.aws4.vpn_connection;" vertex="1" parent="1">
          <mxGeometry x="-1236.82" y="-1268" width="50.71" height="56.5" as="geometry" />
        </mxCell>
        <mxCell id="ZsXU7rFgu9ViAAEN2aUe-569" value="SSL VPN" style="text;strokeColor=none;fillColor=none;html=1;fontSize=12;fontStyle=1;verticalAlign=middle;align=center;movable=1;resizable=1;rotatable=1;deletable=1;editable=1;locked=0;connectable=1;rounded=0;" vertex="1" parent="1">
          <mxGeometry x="-1223.87" y="-1205" width="25" height="10" as="geometry" />
        </mxCell>
        <mxCell id="ZsXU7rFgu9ViAAEN2aUe-571" value="" style="endArrow=none;html=1;rounded=0;strokeWidth=3;fillColor=#1ba1e2;strokeColor=#006EAF;edgeStyle=orthogonalEdgeStyle;exitX=0.94;exitY=0.566;exitDx=0;exitDy=0;exitPerimeter=0;" edge="1" parent="1" source="ZsXU7rFgu9ViAAEN2aUe-559">
          <mxGeometry width="50" height="50" relative="1" as="geometry">
            <mxPoint x="-1353.42" y="-1237.74" as="sourcePoint" />
            <mxPoint x="-1181" y="-1240" as="targetPoint" />
            <Array as="points" />
          </mxGeometry>
        </mxCell>
        <mxCell id="ZsXU7rFgu9ViAAEN2aUe-573" value="USER" style="text;strokeColor=none;fillColor=none;html=1;fontSize=12;fontStyle=1;verticalAlign=middle;align=center;movable=1;resizable=1;rotatable=1;deletable=1;editable=1;locked=0;connectable=1;rounded=0;" vertex="1" parent="1">
          <mxGeometry x="-997" y="-1205" width="25" height="10" as="geometry" />
        </mxCell>
        <mxCell id="ZsXU7rFgu9ViAAEN2aUe-578" value="" style="sketch=0;pointerEvents=1;shadow=0;dashed=0;html=1;strokeColor=#FFFFFF;labelPosition=center;verticalLabelPosition=bottom;verticalAlign=top;outlineConnect=0;align=center;shape=mxgraph.office.concepts.home;fillColor=#4C0099;gradientColor=none;" vertex="1" parent="1">
          <mxGeometry x="-1206.09" y="-1582" width="279.48" height="274" as="geometry" />
        </mxCell>
        <mxCell id="ZsXU7rFgu9ViAAEN2aUe-579" value="HOME OFFICE" style="text;html=1;fontSize=19;fontStyle=1;verticalAlign=middle;align=center;labelBackgroundColor=#4C0099;fontColor=#FFFFFF;labelBorderColor=none;textShadow=0;rounded=0;" vertex="1" parent="1">
          <mxGeometry x="-1301.6700000000005" y="-1372" width="25" height="10" as="geometry" />
        </mxCell>
        <mxCell id="ZsXU7rFgu9ViAAEN2aUe-583" value="" style="endArrow=none;html=1;rounded=0;strokeWidth=3;fillColor=#1ba1e2;strokeColor=#006EAF;edgeStyle=orthogonalEdgeStyle;exitX=1.046;exitY=0.49;exitDx=0;exitDy=0;exitPerimeter=0;entryX=0.002;entryY=0.401;entryDx=0;entryDy=0;entryPerimeter=0;" edge="1" parent="1" source="ZsXU7rFgu9ViAAEN2aUe-567" target="ZsXU7rFgu9ViAAEN2aUe-565">
          <mxGeometry width="50" height="50" relative="1" as="geometry">
            <mxPoint x="-1123.74" y="-1239.51" as="sourcePoint" />
            <mxPoint x="-1019.74" y="-1240.51" as="targetPoint" />
            <Array as="points">
              <mxPoint x="-1074" y="-1240" />
              <mxPoint x="-1014" y="-1240" />
            </Array>
          </mxGeometry>
        </mxCell>
        <mxCell id="ZsXU7rFgu9ViAAEN2aUe-584" value="" style="image;aspect=fixed;html=1;points=[];align=center;fontSize=12;image=img/lib/azure2/management_governance/Monitor.svg;" vertex="1" parent="1">
          <mxGeometry x="908" y="-159.5" width="64" height="64" as="geometry" />
        </mxCell>
        <mxCell id="ZsXU7rFgu9ViAAEN2aUe-585" value="" style="image;sketch=0;aspect=fixed;html=1;points=[];align=center;fontSize=12;image=img/lib/mscae/Azure_Database_for_MySQL_servers.svg;" vertex="1" parent="1">
          <mxGeometry x="1123.58" y="-549" width="63.84" height="84" as="geometry" />
        </mxCell>
      </root>
    </mxGraphModel>
  </diagram>
</mxfile>
